<svg width="70" height="18" viewBox="0 0 70 18" fill="none" xmlns="http://www.w3.org/2000/svg">
<path d="M69.9964 8.03304C69.8932 5.65539 68.6078 3.31445 66.0634 2.16249C64.44 1.58754 63.0188 1.64903 62.4761 1.90664C61.9334 2.16426 62.1559 2.75498 62.8639 2.73729C63.8866 2.80276 64.9017 2.91748 65.6363 3.69033C66.8135 4.92914 66.4963 7.20299 65.0652 8.26471C63.4292 9.47846 61.5664 9.79962 59.5603 9.71174C56.6613 9.41534 53.0447 7.68268 50.3467 4.66121C47.6487 1.63974 46.039 0.645559 42.9464 0.11588C40.9254 -0.230358 39.0093 0.223674 37.2142 1.15282C36.5461 1.49877 35.2592 2.1759 35 2.30405C34.7408 2.1759 33.4539 1.49877 32.7858 1.15282C30.9907 0.223674 29.0746 -0.230358 27.0536 0.11588C23.961 0.645559 22.3515 1.63974 19.6533 4.66121C16.9551 7.68268 13.3387 9.41534 10.4397 9.71174C8.4336 9.79977 6.57081 9.4786 4.93475 8.26471C3.50366 7.20284 3.18647 4.929 4.36372 3.69033C5.09815 2.91748 6.11322 2.80276 7.13606 2.73729C7.84414 2.75513 8.06662 2.16426 7.5239 1.90664C6.98119 1.64903 5.56 1.58754 3.93658 2.16249C1.3922 3.3146 0.106838 5.65553 0.003595 8.03304C-0.0996482 10.4106 1.98882 15.7082 10.4237 17.5385C18.8586 19.3688 32.7159 15.3138 35 13.0544C37.2841 15.3138 51.1413 19.3689 59.5763 17.5387C68.0113 15.7084 70.0996 10.4107 69.9964 8.03304Z" fill="#FFA648"/>
</svg>
