<svg width="70" height="72" viewBox="0 0 70 72" fill="none" xmlns="http://www.w3.org/2000/svg">
<path d="M54.2323 56.0425L43.8551 52.9426C42.504 52.539 41.5602 51.2723 41.5602 49.8622V47.1267L41.6156 47.0947C42.6557 46.4932 43.6273 45.8022 44.526 45.037L46.4977 45.2562L54.5449 53.3034C55.1617 53.9201 55.9717 54.2283 56.7819 54.2283C57.5921 54.2283 58.4021 53.9201 59.0189 53.3033C59.6163 52.7058 59.9454 51.9113 59.9454 51.0665C59.9454 50.2215 59.6163 49.4269 59.0189 48.8295L50.9718 40.7824L50.5374 36.8723C50.5192 36.7083 50.4897 36.5471 50.4515 36.389C50.8067 35.3719 51.0807 34.3235 51.2682 33.253H52.879C55.1601 33.253 57.016 31.3971 57.016 29.116V27.1194C57.016 25.5 56.0804 24.0959 54.7217 23.4169V20.6531C54.7217 17.2073 53.8558 13.7963 52.2179 10.7887C51.9408 10.2797 51.3039 10.0922 50.795 10.3691C50.2863 10.6462 50.0985 11.2832 50.3756 11.792C51.8464 14.4929 52.6239 17.557 52.6239 20.6531V22.9822H51.2478C49.6919 14.9169 42.581 8.80568 34.0685 8.80568C33.9215 8.80568 33.7751 8.80764 33.6289 8.81127C36.9998 7.21064 40.6807 6.27165 44.4098 6.07362L45.4721 6.01711C46.449 6.77876 47.3568 7.64153 48.1769 8.60065C48.5534 9.04106 49.2156 9.09266 49.6557 8.71617C50.096 8.33968 50.1477 7.67761 49.7712 7.23735C48.7756 6.07292 47.6649 5.03491 46.4635 4.13285C46.4379 4.11215 46.4114 4.09271 46.384 4.07439C42.8546 1.45085 38.5507 0 34.0685 0C22.6804 0 13.4156 9.26482 13.4156 20.6529V23.4167C12.0569 24.0957 11.1212 25.4999 11.1212 27.1193V29.1158C11.1212 31.3971 12.9771 33.2529 15.2583 33.2529H16.9031C17.9524 38.9539 21.4568 43.989 26.5769 46.929V49.8622C26.5769 51.2723 25.6331 52.5391 24.282 52.9426L20.8044 53.9814C20.2493 54.1473 19.9338 54.7316 20.0995 55.2867C20.2652 55.8418 20.8494 56.1572 21.4048 55.9916L24.8824 54.9527C27.1153 54.2856 28.6747 52.1924 28.6747 49.8622V48.058C30.4381 48.8713 32.3459 49.2787 34.2539 49.2787C36.0298 49.2787 37.8048 48.9253 39.4625 48.2226V49.8622C39.4625 52.1924 41.0219 54.2858 43.2548 54.9527L53.6321 58.0526C56.9097 59.0316 59.1989 62.1045 59.1989 65.5253V67.5633C59.1989 68.6356 58.3266 69.5079 57.2543 69.5079H50.4072V62.6717C50.4072 62.0923 49.9375 61.6228 49.3582 61.6228C48.779 61.6228 48.3093 62.0923 48.3093 62.6717V63.5696H21.0704V62.6717C21.0704 62.0923 20.6007 61.6228 20.0215 61.6228C19.4422 61.6228 18.9725 62.0923 18.9725 62.6717V69.5079H10.8828C9.81052 69.5079 8.93825 68.6356 8.93825 67.5633V65.5253C8.93825 62.1045 11.2274 59.0316 14.5052 58.0526L16.4943 57.4584C17.0494 57.2924 17.3649 56.7082 17.1991 56.1531C17.0332 55.5979 16.4489 55.2821 15.8938 55.4482L13.9048 56.0425C11.8479 56.6569 10.0831 57.8915 8.80063 59.6128C7.5183 61.3343 6.84042 63.3787 6.84042 65.5252V67.5632C6.84042 69.7922 8.65378 71.6055 10.8828 71.6055H23.1781C23.7574 71.6055 24.227 71.136 24.227 70.5566C24.227 69.9772 23.7574 69.5077 23.1781 69.5077H21.0704V65.6673H48.3092V69.5079H27.6995C27.1202 69.5079 26.6506 69.9773 26.6506 70.5568C26.6506 71.1362 27.1202 71.6057 27.6995 71.6057H57.2542C59.4832 71.6057 61.2965 69.7922 61.2965 67.5633V65.5253C61.2965 63.3787 60.6187 61.3343 59.3363 59.613C58.054 57.8914 56.289 56.6567 54.2323 56.0425ZM48.8716 40.8784L46.5939 43.156L42.8192 42.7366C42.289 42.6777 41.818 42.3876 41.5267 41.9409C41.2353 41.4941 41.16 40.946 41.3198 40.4372C42.0434 38.1346 43.8501 36.328 46.1526 35.6045C46.6614 35.4444 47.2095 35.5201 47.6564 35.8112C48.1032 36.1025 48.3933 36.5737 48.452 37.1038L48.8716 40.8784ZM49.9697 42.7471L52.4618 45.2391L50.9547 46.7462L48.4626 44.2541L49.9697 42.7471ZM57.8474 51.0663C57.8474 51.3509 57.7365 51.6186 57.5353 51.8199C57.1198 52.2354 56.4437 52.2355 56.0282 51.8199L52.4381 48.2298L53.9452 46.7227L57.5353 50.3129C57.7365 50.5139 57.8474 50.7817 57.8474 51.0663ZM52.8787 25.0799C54.0031 25.0799 54.9179 25.9947 54.9179 27.1191V29.1157C54.9179 30.2401 54.0031 31.1549 52.8787 31.1549H51.5203C51.5492 30.7211 51.565 30.285 51.565 29.8467V29.1663H52.5209C53.1002 29.1663 53.5698 28.6968 53.5698 28.1174C53.5698 27.538 53.1002 27.0685 52.5209 27.0685H51.565V26.3021C51.565 25.8912 51.5496 25.4838 51.5217 25.0799H52.8787ZM34.0685 2.09782C37.0404 2.09782 39.9248 2.8087 42.5072 4.12796C38.2027 4.61297 34.0078 6.01222 30.2779 8.21969L25.5531 11.0159C25.5309 11.0291 25.5102 11.0436 25.4894 11.0582C21.095 13.541 17.8757 17.8684 16.8893 22.9821H15.5132V20.6529C15.5134 10.4217 23.8373 2.09782 34.0685 2.09782ZM15.2583 31.155C14.1339 31.155 13.2191 30.2403 13.2191 29.1158V27.1193C13.2191 25.9948 14.1339 25.08 15.2583 25.08H16.6154C16.5875 25.4839 16.5721 25.8913 16.5721 26.3022V27.0686H15.616C15.0368 27.0686 14.5671 27.5381 14.5671 28.1175C14.5671 28.697 15.0368 29.1664 15.616 29.1664H16.5719V29.6522C16.5719 30.1562 16.5931 30.6573 16.6307 31.155H15.2583ZM28.7975 45.7704L27.8105 45.2197C22.1723 42.0738 18.6698 36.1087 18.6698 29.6522V26.3022C18.6698 17.8114 25.5776 10.9036 34.0685 10.9036C42.5593 10.9036 49.4671 17.8115 49.4671 26.3022V29.847C49.4671 31.3125 49.282 32.7541 48.9337 34.1451C48.8903 34.1142 48.8469 34.0833 48.802 34.0541C47.8278 33.4187 46.6328 33.2545 45.5236 33.6032C42.5673 34.5323 40.2475 36.8519 39.3185 39.8081C38.9698 40.9176 39.1342 42.1127 39.7692 43.0866C40.2252 43.7859 40.8836 44.3077 41.6461 44.5948C41.2948 44.834 40.9361 45.0642 40.5652 45.2787L39.8624 45.6851C36.465 47.6504 32.2251 47.6829 28.7975 45.7704Z" fill="#FFA648"/>
<path d="M9.5188 50.8518L10.0372 49.0706C10.1298 48.7525 10.3747 48.5075 10.6922 48.4149L12.4741 47.8963C13.5454 47.5846 14.2651 46.6256 14.2651 45.5101C14.2651 44.3947 13.5454 43.4357 12.4742 43.1239L10.6929 42.6055C10.3749 42.5129 10.1298 42.2682 10.0374 41.9507L9.5188 40.1685C9.20706 39.0974 8.24808 38.3777 7.13246 38.3777C6.01683 38.3777 5.05799 39.0974 4.74625 40.1685L4.22781 41.9497C4.13523 42.2677 3.89034 42.5128 3.57287 42.6054L1.79084 43.1239C0.719693 43.4357 0 44.3945 0 45.5101C0 46.6258 0.719693 47.5847 1.79084 47.8963L3.57217 48.4148C3.8902 48.5074 4.13523 48.7523 4.22767 49.0699L4.74625 50.8519C5.05799 51.9229 6.01683 52.6426 7.13246 52.6426C8.24808 52.6425 9.20706 51.9229 9.5188 50.8518ZM6.76058 50.2656L6.242 48.4836C5.94803 47.4733 5.16917 46.6946 4.15844 46.4005L2.37711 45.882C2.14635 45.8149 2.09796 45.6426 2.09796 45.51C2.09796 45.3774 2.14635 45.2053 2.37711 45.1381L4.15914 44.6195C5.16931 44.3254 5.94817 43.5466 6.24228 42.536L6.76072 40.7548C6.82785 40.524 7.00001 40.4756 7.13274 40.4756C7.26546 40.4756 7.43762 40.524 7.50475 40.7547L8.02333 42.5368C8.31731 43.547 9.09616 44.3256 10.1069 44.6198L11.8882 45.1383C12.1188 45.2054 12.1674 45.3776 12.1674 45.5101C12.1674 45.6427 12.119 45.815 11.8881 45.8822L10.1063 46.4007C9.09616 46.6947 8.31731 47.4736 8.02319 48.4843L7.50447 50.2655C7.43734 50.4962 7.26504 50.5446 7.13232 50.5446C6.99987 50.5446 6.82771 50.4962 6.76058 50.2656Z" fill="#FFA648"/>
<path d="M68.209 12.1311L66.4278 11.6128C66.1098 11.5202 65.8648 11.2755 65.7723 10.958L65.2538 9.17585C64.942 8.1047 63.9832 7.38501 62.8676 7.38501C61.7521 7.38501 60.7931 8.1047 60.4814 9.17571L59.9629 10.957C59.8703 11.2751 59.6256 11.5201 59.3077 11.6125L57.5257 12.1311C56.4546 12.4429 55.735 13.4018 55.735 14.5173C55.735 15.6329 56.4546 16.5919 57.5259 16.9037L59.3071 17.422C59.6252 17.5146 59.8702 17.7594 59.9626 18.0771L60.4812 19.8592C60.7929 20.9302 61.7518 21.6499 62.8674 21.6499C63.983 21.6499 64.942 20.9302 65.2538 19.8591L65.7722 18.0777C65.8648 17.7599 66.1095 17.5148 66.4271 17.4222L68.2092 16.9037C69.2803 16.5919 70 15.6331 70 14.5175C69.9999 13.402 69.2803 12.443 68.209 12.1311ZM67.6229 14.8895L65.8409 15.4081C64.8307 15.702 64.052 16.4809 63.7579 17.4915L63.2394 19.2728C63.1723 19.5036 63 19.552 62.8673 19.552C62.7347 19.552 62.5625 19.5036 62.4954 19.2729L61.9768 17.4908C61.6828 16.4805 60.904 15.7018 59.8933 15.4076L58.1121 14.8893C57.8813 14.8222 57.8328 14.6499 57.8328 14.5172C57.8328 14.3846 57.8812 14.2124 58.1119 14.1453L59.8938 13.6267C60.9041 13.3329 61.6828 12.554 61.9771 11.5433L62.4955 9.76198C62.5627 9.53136 62.7348 9.48283 62.8676 9.48297C63.0001 9.48297 63.1724 9.53136 63.2396 9.76212L63.7581 11.5442C64.0521 12.5543 64.831 13.3329 65.8417 13.6271L67.6229 14.1455C67.8537 14.2126 67.9022 14.3849 67.902 14.5175C67.902 14.65 67.8537 14.8222 67.6229 14.8895Z" fill="#FFA648"/>
<path d="M28.5084 27.7274L28.1996 27.9309C26.9436 28.7587 25.3203 28.7587 24.0641 27.9309L23.7553 27.7274C23.2719 27.4089 22.6212 27.5423 22.3022 28.0259C21.9835 28.5097 22.1171 29.1601 22.6008 29.479L22.9096 29.6826C23.8885 30.3276 25.0101 30.6501 26.1319 30.6501C27.2537 30.6501 28.3754 30.3275 29.3541 29.6825L29.6629 29.479C30.1466 29.1603 30.2803 28.5097 29.9615 28.0259C29.6425 27.5424 28.9921 27.4086 28.5084 27.7274Z" fill="#FFA648"/>
<path d="M45.2274 29.6822L45.5362 29.4787C46.0198 29.16 46.1535 28.5094 45.8348 28.0257C45.5159 27.5422 44.8653 27.4083 44.3817 27.7272L44.0729 27.9307C42.8168 28.7585 41.1935 28.7585 39.9374 27.9307L39.6286 27.7272C39.1451 27.4086 38.4945 27.542 38.1755 28.0257C37.8567 28.5094 37.9903 29.1599 38.4741 29.4787L38.7829 29.6824C39.7617 30.3274 40.8833 30.6499 42.0051 30.6499C43.1269 30.6499 44.2487 30.3274 45.2274 29.6822Z" fill="#FFA648"/>
<path d="M37.2908 40.4527L37.5996 40.2492C38.0832 39.9305 38.2169 39.2799 37.8981 38.7962C37.5793 38.3127 36.9287 38.1788 36.4451 38.4977L36.1363 38.7012C34.8802 39.529 33.2569 39.529 32.0007 38.7012L31.6919 38.4977C31.2085 38.1791 30.5579 38.3125 30.2389 38.7962C29.9201 39.2799 30.0537 39.9304 30.5374 40.2492L30.8462 40.4529C31.8251 41.0979 32.9467 41.4204 34.0685 41.4204C35.1903 41.4204 36.3121 41.0977 37.2908 40.4527Z" fill="#FFA648"/>
</svg>
