<svg width="70" height="82" viewBox="0 0 70 82" fill="none" xmlns="http://www.w3.org/2000/svg">
<path d="M54.4681 58.9664C53.8873 58.6555 53.1638 58.8738 52.8525 59.4548C52.347 60.3982 51.7622 61.2963 51.1095 62.1409C49.6128 60.249 47.5036 58.8482 45.0254 58.236L39.1125 56.775V51.852C40.9604 50.7666 42.7179 49.3477 44.2743 47.6495C44.7197 47.1635 44.6867 46.4086 44.2008 45.9632C43.715 45.518 42.9602 45.5508 42.5145 46.0368C39.192 49.6619 34.7141 51.914 30.8281 51.914C28.6357 51.914 26.5249 51.3189 24.5769 50.3005C24.4213 50.146 24.2232 50.0349 24.0018 49.9846C19.6469 47.4815 16.1747 42.878 14.5389 38.1945C21.2676 36.8629 26.767 33.0431 30.2798 29.9695C33.2949 27.3314 35.9667 24.2345 37.8172 21.3041C38.8731 27.6302 41.8216 33.6731 47.7297 36.0959C47.2054 38.2909 46.3841 40.3611 45.2827 42.2623C44.9522 42.8326 45.1468 43.5629 45.7169 43.8932C46.2874 44.2237 47.0174 44.0291 47.3478 43.4589C48.5398 41.4015 49.433 39.1682 50.0125 36.805C50.5831 36.9331 51.1695 37.0314 51.773 37.0964C52.4296 37.1681 53.0168 36.6927 53.0872 36.0374C53.1577 35.3821 52.6835 34.7937 52.0283 34.7232C50.9341 34.6056 49.9086 34.3679 48.9526 34.0109C48.9518 34.0106 48.951 34.0103 48.9502 34.0101C48.8144 33.9594 48.6803 33.9064 48.5474 33.8509C48.5465 33.8505 48.5457 33.8501 48.5447 33.8497C44.7323 32.2566 42.4569 28.8419 41.1505 24.9047C41.1438 24.8847 41.1372 24.8646 41.1305 24.8444C39.8304 20.8903 39.8078 17.2327 39.8078 17.1948C39.8078 16.6213 39.3994 16.1281 38.8354 16.0214C38.2704 15.9147 37.712 16.2243 37.5026 16.7585C34.7251 23.8411 24.2375 34.441 12.8242 36.0665C12.8152 36.0678 12.8067 36.0702 12.7979 36.0718C11.807 36.2104 10.7926 36.2882 9.75592 36.2882C9.09682 36.2882 8.56248 36.8223 8.56248 37.4816C8.56248 38.1409 9.09682 38.675 9.75592 38.675C10.5563 38.675 11.3507 38.6329 12.138 38.5535C13.9492 44.2205 17.2346 47.828 19.7408 49.8876C20.6378 50.6246 21.5782 51.2782 22.5432 51.8426V56.7582L16.5564 58.237C15.8324 58.4162 15.1362 58.6636 14.4719 58.9764V51.6246C14.4719 49.5585 11.9547 47.3723 9.79936 46.1279C8.30375 45.2644 6.74433 44.6823 5.40848 44.4888C3.10818 44.1562 2.20387 45.0749 1.8678 45.656C1.67319 45.9949 1.57454 46.3751 1.57454 46.7856V62.1101C0.64525 62.554 0 63.5005 0 64.5972V70.1825C0 70.8417 0.53434 71.3759 1.19343 71.3759C1.85253 71.3759 2.38687 70.8417 2.38687 70.1825V68.9451H13.6592V78.7147C13.6592 78.9192 13.493 79.0855 13.2885 79.0855H2.75763C2.55315 79.0855 2.38687 78.9192 2.38687 78.7147V74.9562C2.38687 74.2969 1.85253 73.7628 1.19343 73.7628C0.53434 73.7628 0 74.2969 0 74.9562V78.7147C0 80.2353 1.23703 81.4723 2.75763 81.4723H13.2885C14.8091 81.4723 16.0461 80.2353 16.0461 78.7147V75.495H52.6686C52.9981 75.495 53.313 75.3588 53.5387 75.1185C53.7643 74.8782 53.8803 74.5554 53.8598 74.2266L53.4906 68.3724C53.3993 66.9215 53.0333 65.5437 52.4425 64.2909C53.4044 63.1468 54.2492 61.9034 54.9571 60.5822C55.2677 60.001 55.0491 59.2777 54.4681 58.9664ZM12.0756 51.5488C11.6006 51.7221 9.81066 51.5864 7.43827 50.2165C5.13447 48.8865 4.07152 47.4232 3.96952 46.8625C6.02031 46.1144 11.7916 49.8812 12.0756 51.5488ZM3.96108 50.6657C4.68351 51.2909 5.48629 51.8458 6.24468 52.2835C7.88 53.2278 10.226 54.1691 12.0847 53.9645V61.8389H3.96092L3.96108 50.6657ZM13.6589 66.5574H2.38639V64.5966C2.38639 64.3921 2.55267 64.2258 2.75715 64.2258C12.4808 64.2261 13.2312 64.2261 13.2759 64.2261C13.277 64.2261 13.2777 64.2261 13.2781 64.2261C13.2802 64.2261 13.2823 64.2258 13.2843 64.2258H13.2882C13.4926 64.2258 13.6589 64.3921 13.6589 64.5966V66.5574ZM16.0456 73.108V67.7571C16.0456 67.755 16.0459 67.7531 16.0459 67.7509C16.0459 67.7487 16.0456 67.7469 16.0456 67.7447V64.5966C16.0456 63.4999 15.4007 62.5537 14.4714 62.1096V61.703C15.2853 61.1765 16.1763 60.789 17.1289 60.5532L23.4877 58.9826C24.3366 58.7729 24.9295 58.0156 24.9295 57.1414V53.0339C26.9086 53.8582 28.9244 54.3007 30.828 54.3007C32.7593 54.3007 34.7652 53.8612 36.7253 53.0452V57.1589C36.7253 58.0317 37.3174 58.7887 38.1673 59.0001L44.4527 60.5532C46.8128 61.1362 48.7479 62.628 49.9156 64.6153C49.9463 64.6834 49.9837 64.749 50.0276 64.8112C50.6437 65.9248 51.0234 67.1846 51.1077 68.5223L51.3969 73.108H16.0456Z" fill="#FFA648"/>
<path d="M58.8924 10.7683C56.0974 10.0097 55.2295 9.14202 54.4711 6.34652C54.2474 5.52273 53.5232 4.96946 52.6694 4.96946C51.8155 4.96946 51.0913 5.52289 50.8676 6.34684C50.6502 7.14819 50.4209 7.77673 50.1562 8.28449C50.0067 8.1276 49.856 7.97197 49.703 7.8189C44.6606 2.77672 37.9575 0 30.8284 0C16.1097 0 4.13531 11.9744 4.13531 26.6931V41.0621C4.13531 41.7211 4.66966 42.2555 5.32875 42.2555C5.98784 42.2555 6.52218 41.7213 6.52218 41.0621V26.6931C6.52218 13.2905 17.4259 2.38687 30.8284 2.38687C37.3201 2.38687 43.4236 4.91551 48.0148 9.50673C48.1765 9.66824 48.3351 9.83309 48.4922 9.99922C47.9677 10.2879 47.3072 10.5344 46.4457 10.7683C45.6219 10.992 45.0686 11.7162 45.0686 12.57C45.0686 13.4239 45.6221 14.1481 46.446 14.3718C49.241 15.1302 50.1089 15.9979 50.8676 18.7943C51.0915 19.6169 51.8155 20.1695 52.669 20.1695C53.2236 20.1695 53.7223 19.9353 54.066 19.5459C54.7749 21.847 55.1347 24.2401 55.1347 26.6931V37.3226C55.1347 37.9819 55.6689 38.5161 56.3281 38.5161C56.9874 38.5161 57.5215 37.9819 57.5215 37.3226V26.6931C57.5215 23.1166 56.8271 19.6544 55.4585 16.3911C56.1157 15.4188 57.0854 14.8624 58.8926 14.3718L58.8932 14.3715C59.7159 14.1476 60.2685 13.4236 60.2685 12.57C60.2685 11.7165 59.7159 10.9925 58.8924 10.7683ZM53.0637 15.7568C53.0611 15.7619 53.0586 15.7672 53.0559 15.7723C53.0546 15.7746 53.0533 15.777 53.0522 15.7796C52.9168 16.042 52.7889 16.3249 52.6676 16.632C51.8516 14.5793 50.6584 13.3865 48.6058 12.5708C49.6581 12.1547 50.4536 11.654 51.0932 11.0168C51.0975 11.0127 51.1014 11.0081 51.1055 11.0038C51.1111 10.9979 51.1165 10.9922 51.122 10.9863C51.7563 10.346 52.2558 9.55256 52.6697 8.50647C53.4847 10.5581 54.6766 11.751 56.7258 12.5668C55.1703 13.1769 53.9368 14.0787 53.0637 15.7568Z" fill="#FFA648"/>
<path d="M69.7134 67.4947L65.0938 54.8026C64.9611 54.4379 64.7455 54.1192 64.4669 53.8648L65.751 43.7783C65.9331 42.3505 65.3702 40.9615 64.2457 40.0629C63.1213 39.1644 61.6424 38.9215 60.2896 39.414L57.3259 40.4927C57.3228 40.4939 57.3197 40.4943 57.3168 40.4954L53.0021 42.0658C52.9993 42.0668 52.9967 42.0684 52.9939 42.0693L50.0297 43.1482C48.6771 43.6407 47.7001 44.777 47.4162 46.1881C47.1325 47.5994 47.5941 49.0252 48.6514 50.0022L56.1184 56.9031C56.0685 57.277 56.1082 57.6599 56.241 58.0246L57.6454 61.883C57.6455 61.8837 57.6457 61.8842 57.6459 61.8848C57.646 61.8851 57.6462 61.8854 57.6463 61.8857L60.8605 70.7165C62.2834 74.627 67.7789 74.9082 69.5562 71.0963C70.088 69.9564 70.1438 68.6772 69.7134 67.4947ZM57.5918 55.0152L50.2712 48.2497C49.8236 47.8362 49.6362 47.2566 49.7563 46.6593C49.8765 46.0619 50.2736 45.6 50.8462 45.3915L51.7301 45.0698C51.8448 46.0901 52.2288 47.2177 52.8288 48.1689L54.1749 50.3032C54.4018 50.6632 54.7893 50.8602 55.1855 50.8602C55.403 50.8602 55.6234 50.8007 55.821 50.6761C56.3784 50.3244 56.5455 49.5875 56.1938 49.0299L54.8478 46.8954C54.1881 45.8497 54.032 44.675 54.0891 44.2112L57.8634 42.8374C58.2053 43.156 58.8409 44.1563 59.0076 45.3815L59.3485 47.8817C59.4378 48.5347 60.0421 48.9922 60.6921 48.9031C61.3452 48.814 61.8025 48.2123 61.7136 47.5595L61.3727 45.0593C61.2207 43.9448 60.7902 42.8343 60.2222 41.979C60.6748 41.9177 61.6972 41.0815 62.7558 41.9277C63.2318 42.308 63.4606 42.8726 63.3834 43.477L62.1244 53.3654C62.1018 53.3729 62.0791 53.3783 62.0566 53.3864L57.6573 54.9877C57.6347 54.9958 57.6137 55.0065 57.5918 55.0152ZM58.6848 57.7609L63.052 56.1714L63.8476 58.3576L59.4804 59.9471L58.6848 57.7609ZM64.3047 71.2119C63.7422 70.9496 63.3155 70.4839 63.1032 69.9005L60.2969 62.1901L64.664 60.6007L67.4705 68.3112C68.1826 70.2671 66.1612 72.0773 64.3047 71.2119Z" fill="#FFA648"/>
</svg>
