<svg width="70" height="71" viewBox="0 0 70 71" fill="none" xmlns="http://www.w3.org/2000/svg">
<path d="M4.1203 35.5192L1.59959 40.5595C1.30089 41.1569 1.14015 41.8136 1.12923 42.4814C1.11831 43.1492 1.25749 43.8108 1.5365 44.4176C1.81551 45.0244 2.22722 45.5608 2.74124 45.9871C3.25527 46.4135 3.85848 46.719 4.50637 46.8811L5.79325 47.2017L7.17609 54.809C7.43165 56.2183 8.17408 57.4931 9.27377 58.4108C10.3735 59.3285 11.7605 59.8308 13.1928 59.8301C13.4818 59.8302 13.7704 59.8095 14.0564 59.768L20.8814 58.7938C21.9933 60.6832 22.5788 62.8361 22.5769 65.0284V69.9897H24.8346V65.0228C24.8341 62.7051 24.2783 60.4212 23.2136 58.3626L27.3181 57.5498L26.8665 55.3373L21.2505 56.4593L13.7313 57.534C12.7468 57.6651 11.7493 57.4147 10.9434 56.8342C10.1375 56.2537 9.58406 55.387 9.39653 54.4116L7.88274 46.0818C7.84389 45.8684 7.74432 45.6706 7.59597 45.5122C7.44762 45.3539 7.25677 45.2416 7.04627 45.1889L5.05386 44.69C4.73406 44.61 4.43631 44.4592 4.18259 44.2488C3.92886 44.0384 3.72563 43.7736 3.58791 43.4741C3.4502 43.1746 3.3815 42.848 3.38689 42.5184C3.39229 42.1888 3.47164 41.8647 3.61909 41.5698L7.78905 33.2424C7.92234 32.9745 7.94386 32.6647 7.84888 32.381C7.13764 30.2535 6.77437 28.0251 6.77309 25.7818C6.77187 23.4118 7.57321 21.1112 9.04659 19.2548L14.4797 34.72C16.8121 41.3948 20.4689 47.5296 25.2308 52.7562C29.9926 57.9828 35.7613 62.1935 42.1906 65.1356L42.9074 70.1511L45.1426 69.8305L44.621 66.1821C45.2487 66.4338 45.8729 66.6889 46.5119 66.917C52.206 68.9535 58.2088 69.993 64.2562 69.9897H68.8596C69.1204 69.9899 69.3732 69.8998 69.5751 69.7347C69.7769 69.5697 69.9155 69.3398 69.9671 69.0842C70.0187 68.8286 69.9802 68.563 69.8581 68.3325C69.7361 68.1021 69.538 67.921 69.2976 67.82L58.7113 63.3622C56.9938 62.6351 55.3677 61.7087 53.8663 60.6022C58.6316 62.5122 63.6333 63.7691 68.7354 64.3387C68.7767 64.3431 68.8181 64.3454 68.8596 64.3454C69.1161 64.3481 69.3659 64.2632 69.5677 64.105C69.7696 63.9467 69.9115 63.7244 69.9701 63.4746C70.0287 63.2249 70.0006 62.9627 69.8902 62.7311C69.7799 62.4995 69.594 62.3124 69.3631 62.2006C65.8891 60.4625 62.7361 58.1462 60.0388 55.3508C62.6205 57.1469 65.5985 58.2913 68.7185 58.6865C68.9625 58.7171 69.2098 58.6671 69.4228 58.5442C69.6358 58.4213 69.8028 58.2322 69.8985 58.0057C69.9942 57.7792 70.0133 57.5276 69.9529 57.2893C69.8926 57.0509 69.756 56.8388 69.564 56.6851C66.0568 53.8862 63.4694 50.0999 62.1362 45.8154L61.5978 44.0951C59.6452 37.8424 58.0227 31.4914 56.7369 25.0684C55.3079 18.0062 51.4837 11.6543 45.9111 7.08672C40.3385 2.51915 33.3595 0.0162316 26.1542 0.0012207C19.2206 0.0104794 12.5735 2.76898 7.67064 7.67184C2.76777 12.5747 0.00927248 19.2218 1.38039e-05 26.1555C-0.00258765 27.917 0.362535 29.6598 1.07202 31.2721C1.78151 32.8845 2.81975 34.3311 4.1203 35.5192ZM26.1542 2.25891C32.8379 2.27397 39.3114 4.59632 44.4804 8.8334C49.6494 13.0705 53.197 18.9624 54.5233 25.5131C55.8246 32.0135 57.4667 38.441 59.4428 44.769L59.9812 46.4905C61.0095 49.7955 62.7218 52.847 65.0069 55.4468C61.3221 54.035 58.2305 51.4063 56.2448 47.9964L48.388 34.431C48.2423 34.182 48.0068 33.9982 47.7298 33.9174C47.4528 33.8366 47.1554 33.8649 46.8986 33.9965C46.6419 34.1281 46.4453 34.3531 46.3492 34.6251C46.2531 34.8972 46.2649 35.1957 46.382 35.4594L51.3625 46.5221C53.9957 52.3614 58.1122 57.4092 63.3023 61.1632C56.6715 59.7158 50.3726 57.0324 44.7351 53.2534C41.0083 47.8241 38.3467 41.7364 36.8918 35.3138L34.9728 26.8474L32.7693 27.3486L34.6883 35.815C35.7803 40.6131 37.5196 45.2405 39.8584 49.57C34.0636 44.6502 29.3647 38.57 26.0651 31.7218L23.5929 26.6025L21.561 27.5846L24.032 32.7039C29.0871 43.2285 37.2878 51.9222 47.4996 57.5825C50.2298 61.0295 53.7844 63.7331 57.8353 65.4438L63.2459 67.7218C52.9597 67.5163 42.9817 64.1738 34.6472 58.1419C26.3128 52.1099 20.0196 43.6761 16.6099 33.9693L10.8155 17.4803L13.1409 15.5432L11.6937 13.8093L9.1177 15.9541C7.67518 17.1531 6.51484 18.6554 5.71934 20.3541C4.92384 22.0528 4.51276 23.9061 4.5154 25.7818C4.51513 28.109 4.8664 30.4229 5.55732 32.6452L5.1769 33.406C3.29983 31.4596 2.25303 28.8596 2.25771 26.1555C2.26488 19.8199 4.78484 13.7459 9.26476 9.26597C13.7447 4.78605 19.8187 2.26608 26.1542 2.25891Z" fill="#FFA648"/>
<path d="M19.1904 13.5473C19.8839 13.5487 20.5557 13.7897 21.092 14.2295C21.6283 14.6694 21.9961 15.2809 22.1333 15.9608L22.5995 18.2885C22.6513 18.5437 22.7898 18.7731 22.9914 18.9379C23.193 19.1027 23.4454 19.1927 23.7058 19.1927C23.9662 19.1927 24.2185 19.1027 24.4202 18.9379C24.6218 18.7731 24.7602 18.5437 24.812 18.2885L25.2782 15.9653C25.4145 15.2846 25.7819 14.672 26.3183 14.2313C26.8547 13.7906 27.527 13.549 28.2211 13.5473C28.5205 13.5473 28.8077 13.4284 29.0194 13.2167C29.2311 13.005 29.35 12.7179 29.35 12.4185C29.35 12.1191 29.2311 11.832 29.0194 11.6203C28.8077 11.4086 28.5205 11.2896 28.2211 11.2896C27.5276 11.2883 26.8558 11.0473 26.3195 10.6074C25.7832 10.1676 25.4154 9.55604 25.2782 8.87618L24.812 6.5485C24.7602 6.29331 24.6218 6.06389 24.4202 5.8991C24.2185 5.73431 23.9662 5.64429 23.7058 5.64429C23.4454 5.64429 23.193 5.73431 22.9914 5.8991C22.7898 6.06389 22.6513 6.29331 22.5995 6.5485L22.1333 8.87166C21.997 9.55236 21.6296 10.165 21.0932 10.6057C20.5569 11.0464 19.8846 11.288 19.1904 11.2896C18.891 11.2896 18.6039 11.4086 18.3922 11.6203C18.1805 11.832 18.0615 12.1191 18.0615 12.4185C18.0615 12.7179 18.1805 13.005 18.3922 13.2167C18.6039 13.4284 18.891 13.5473 19.1904 13.5473ZM23.7058 10.9815C24.0373 11.5334 24.4665 12.0203 24.9723 12.4185C24.4665 12.8167 24.0373 13.3036 23.7058 13.8555C23.3743 13.3036 22.9451 12.8167 22.4392 12.4185C22.9451 12.0203 23.3743 11.5334 23.7058 10.9815Z" fill="#FFA648"/>
<path d="M68.8596 28.2223C68.166 28.2209 67.4943 27.9799 66.958 27.5401C66.4217 27.1003 66.0539 26.4887 65.9167 25.8088L65.4505 23.4811C65.3987 23.2259 65.2602 22.9965 65.0586 22.8317C64.857 22.6669 64.6046 22.5769 64.3442 22.5769C64.0838 22.5769 63.8314 22.6669 63.6298 22.8317C63.4282 22.9965 63.2898 23.2259 63.238 23.4811L62.7717 25.8043C62.6355 26.485 62.268 27.0976 61.7317 27.5383C61.1953 27.979 60.523 28.2207 59.8288 28.2223C59.5294 28.2223 59.2423 28.3412 59.0306 28.5529C58.8189 28.7646 58.7 29.0517 58.7 29.3511C58.7 29.6505 58.8189 29.9376 59.0306 30.1493C59.2423 30.361 59.5294 30.48 59.8288 30.48C60.5224 30.4814 61.1942 30.7224 61.7305 31.1622C62.2667 31.602 62.6346 32.2136 62.7717 32.8934L63.238 35.2211C63.2898 35.4763 63.4282 35.7057 63.6298 35.8705C63.8314 36.0353 64.0838 36.1253 64.3442 36.1253C64.6046 36.1253 64.857 36.0353 65.0586 35.8705C65.2602 35.7057 65.3987 35.4763 65.4505 35.2211L65.9167 32.8979C66.0529 32.2172 66.4204 31.6046 66.9568 31.1639C67.4931 30.7232 68.1654 30.4816 68.8596 30.48C69.159 30.48 69.4461 30.361 69.6578 30.1493C69.8695 29.9376 69.9884 29.6505 69.9884 29.3511C69.9884 29.0517 69.8695 28.7646 69.6578 28.5529C69.4461 28.3412 69.159 28.2223 68.8596 28.2223ZM64.3442 30.7881C64.0127 30.2363 63.5835 29.7493 63.0777 29.3511C63.5835 28.9529 64.0127 28.466 64.3442 27.9141C64.6757 28.466 65.1049 28.9529 65.6108 29.3511C65.1049 29.7493 64.6757 30.2363 64.3442 30.7881Z" fill="#FFA648"/>
<path d="M51.9269 7.90305C52.6205 7.90445 53.2923 8.14545 53.8285 8.58526C54.3648 9.02506 54.7327 9.63666 54.8698 10.3165L55.336 12.6442C55.3878 12.8994 55.5263 13.1288 55.7279 13.2936C55.9295 13.4584 56.1819 13.5484 56.4423 13.5484C56.7027 13.5484 56.9551 13.4584 57.1567 13.2936C57.3583 13.1288 57.4967 12.8994 57.5486 12.6442L58.0148 10.321C58.151 9.64034 58.5185 9.0277 59.0548 8.587C59.5912 8.1463 60.2635 7.90466 60.9577 7.90305C61.2571 7.90305 61.5442 7.78412 61.7559 7.57242C61.9676 7.36072 62.0865 7.0736 62.0865 6.77421C62.0865 6.47482 61.9676 6.18769 61.7559 5.97599C61.5442 5.76429 61.2571 5.64536 60.9577 5.64536C60.2641 5.64396 59.5923 5.40296 59.0561 4.96316C58.5198 4.52335 58.1519 3.91176 58.0148 3.23189L57.5486 0.904208C57.4967 0.649024 57.3583 0.419601 57.1567 0.254811C56.9551 0.0900213 56.7027 0 56.4423 0C56.1819 0 55.9295 0.0900213 55.7279 0.254811C55.5263 0.419601 55.3878 0.649024 55.336 0.904208L54.8698 3.22737C54.7336 3.90807 54.3661 4.52071 53.8298 4.96141C53.2934 5.40211 52.6211 5.64375 51.9269 5.64536C51.6275 5.64536 51.3404 5.76429 51.1287 5.97599C50.917 6.18769 50.7981 6.47482 50.7981 6.77421C50.7981 7.0736 50.917 7.36072 51.1287 7.57242C51.3404 7.78412 51.6275 7.90305 51.9269 7.90305ZM56.4423 5.33719C56.7738 5.88907 57.203 6.37601 57.7089 6.77421C57.203 7.1724 56.7738 7.65934 56.4423 8.21123C56.1108 7.65934 55.6816 7.1724 55.1757 6.77421C55.6816 6.37601 56.1108 5.88907 56.4423 5.33719Z" fill="#FFA648"/>
</svg>
