<svg width="70" height="71" viewBox="0 0 70 71" fill="none" xmlns="http://www.w3.org/2000/svg">
<path d="M48.8345 15.04L48.503 15.3715C47.9078 15.9667 46.8353 15.9667 46.2401 15.3715L45.9086 15.04L44.3088 16.6399L44.6403 16.9714C45.3701 17.7011 46.3397 18.1028 47.3715 18.1028C48.4034 18.1028 49.3742 17.7011 50.1028 16.9714L50.4343 16.6399L48.8345 15.04Z" fill="#FFA648"/>
<path d="M66.4688 50.914C65.5252 50.914 64.6382 51.2806 63.9718 51.9482L63.2115 52.7085V39.4335H63.1685C63.19 39.1404 63.2115 38.8474 63.2115 38.551C63.2115 34.5774 61.2371 30.8901 57.9311 28.6861L56.4241 27.6814L56.4263 26.8057L58.0658 26.1913C62.4975 24.5292 65.4743 20.2332 65.4743 15.5016C65.4743 9.83772 61.6128 5.02352 56.0835 3.79479L54.8321 3.51646C53.1825 1.30566 50.595 0 47.8185 0H47.1351C44.9028 0 42.7983 0.829333 41.1476 2.37033L39.3656 2.81611C37.4173 3.30262 36.0573 5.04388 36.0573 7.05216C36.0573 8.22205 36.5133 9.30822 37.3019 10.1093C36.5201 10.7745 36.0573 11.7532 36.0573 12.8145C36.0573 14.4494 37.165 15.8693 38.7524 16.2665L40.1995 16.6285C40.0388 16.9453 39.8431 17.244 39.5896 17.4975L39.1201 17.967C38.6041 18.4807 38.3202 19.1674 38.3202 19.8972C38.3202 21.2436 39.2988 22.366 40.583 22.5877V23.4849C40.583 26.7559 43.2441 29.417 46.5151 29.417C46.8058 29.417 47.0887 29.374 47.3715 29.3333V31.001C43.1875 33.3702 40.6136 37.7454 40.5875 42.5924C39.8702 42.0833 39.2242 41.4666 38.6958 40.7403L33.4788 33.5659C33.0624 32.9934 32.5205 32.5363 31.9084 32.2127C31.9503 32.1822 31.9898 32.1494 32.0362 32.1256C33.1213 31.5837 33.7945 30.4941 33.7945 29.2835V24.8913C33.7945 23.6433 32.7796 22.6285 31.5316 22.6285H24.7431C24.2068 22.6285 23.7203 22.8231 23.3322 23.1365L8.40873 17.3968L9.59333 22.134L0.597391 19.5634L3.94075 24.5779L0.338295 26.9788L2.92133 29.5618L0 33.9427H6.64032V37.0982C6.64032 37.7703 6.44345 38.4209 6.07008 38.9809L4.85946 40.7968C4.54379 41.2709 4.37748 41.8208 4.37748 42.3888C4.37748 43.7634 5.34824 44.9141 6.64032 45.1936V46.4924C6.64032 49.5541 9.13171 52.0455 12.1933 52.0455C12.6142 52.0455 13.0272 51.9923 13.4289 51.9006V54.2857C8.00595 57.0577 4.37748 62.725 4.37748 69.0168V70.1482H33.7945V69.0168C33.7945 61.6784 29.3921 55.1761 22.5787 52.4494L22.4802 52.4109V50.4818L22.5719 50.4366C25.4842 48.9804 27.6565 46.3815 28.6544 43.3392L29.856 45.0736C32.4481 48.8175 36.2768 51.4424 40.583 52.5648V70.1482H63.2115V59.2719L64.6665 59.7572C65.0806 59.8953 65.5116 59.9654 65.9484 59.9654C68.1829 59.9654 70 58.1483 70 55.9138V54.4452C70 52.498 68.416 50.914 66.4688 50.914ZM55.3085 20.3656H54.1793L54.1601 27.8432C52.7616 29.2857 51.5205 30.8584 50.4354 32.5386L49.6344 31.337V28.5141C50.0168 28.2754 50.3823 28.0061 50.7092 27.6791C51.4752 26.9132 51.8972 25.8937 51.8972 24.8098V21.9643L55.6841 18.1774C56.1174 18.3336 56.432 18.742 56.432 19.241C56.432 19.8621 55.9285 20.3656 55.3085 20.3656ZM39.3011 14.0704C38.7229 13.9267 38.3202 13.4096 38.3202 12.8145C38.3202 12.3201 38.5951 11.8765 39.0364 11.6559L41.9826 10.1828L39.4833 8.93371C38.7659 8.57505 38.3202 7.85434 38.3202 7.05216C38.3202 6.08479 38.9753 5.24528 39.9143 5.01107L41.9894 4.49288L42.3231 4.38653L42.5449 4.16477C43.7702 2.93831 45.4006 2.26285 47.1351 2.26285H47.8185C49.9931 2.26285 52.0126 3.34335 53.2187 5.15363L53.471 5.53153L55.5925 6.00333C60.0786 7.00011 63.2115 10.9058 63.2115 15.5016C63.2115 19.2953 60.8242 22.7393 57.2715 24.0722L56.432 24.3867L56.4365 22.435C57.7501 21.9688 58.6937 20.7107 58.6937 19.2263C58.6937 17.7249 57.7116 16.4498 56.3573 16.0074C55.8979 13.3451 53.5729 11.3142 50.7828 11.3142H48.555C47.9316 11.3142 47.4236 10.8062 47.4236 10.1738C47.4236 9.55487 47.9271 9.05138 48.546 9.05138H49.6729V6.78854H48.546C46.7979 6.78854 45.3723 8.12475 45.1958 9.83433L42.7169 10.8255C41.4203 11.3448 40.583 12.5814 40.583 13.9776V14.3906L39.3011 14.0704ZM41.0514 20.3656C40.7935 20.3656 40.583 20.1552 40.583 19.8972C40.583 19.7739 40.6328 19.6528 40.7199 19.5657L41.1894 19.0962C42.2575 18.0281 42.8459 16.6082 42.8459 15.0966V13.9776C42.8459 13.5126 43.1253 13.0996 43.5575 12.9265L45.7298 12.0576C46.3386 12.9729 47.3761 13.5771 48.555 13.5771H50.7828C52.5037 13.5771 53.9134 14.868 54.1329 16.5301L50.2974 20.3656H41.0514ZM46.5151 27.1541C44.4921 27.1541 42.8459 25.5079 42.8459 23.4849V22.6285H49.6344V24.811C49.6344 25.2907 49.4477 25.741 49.1094 26.0804C48.4158 26.7729 47.4949 27.1541 46.5151 27.1541ZM48.1545 33.1959L49.1592 34.7041C49.0223 34.961 48.8684 35.2076 48.7383 35.4678L48.5663 35.8129C48.0957 36.752 47.1509 37.337 46.0987 37.337H44.2171C45.1313 35.6579 46.4721 34.2301 48.1545 33.1959ZM42.8459 42.6637C42.8459 41.6081 42.9929 40.5796 43.2701 39.5998H46.0998C48.0142 39.5998 49.734 38.5363 50.5904 36.8244L50.7624 36.4793C51.9945 34.014 53.5864 31.7681 55.4669 29.7621L56.6764 30.5688C57.035 30.8075 57.3745 31.0677 57.6924 31.3483C55.8538 32.9006 54.4622 34.8931 53.6294 37.1797L53.0717 38.7128C51.8961 41.9509 48.7903 44.1255 45.3452 44.1255C44.4864 44.1255 43.6469 43.9773 42.8459 43.7193V42.6637ZM29.2688 24.8913H31.5316V27.1541H29.2688V24.8913ZM24.7431 24.8913H27.0059V27.1541H24.7431V24.8913ZM31.4909 67.8854H6.68558C7.18567 61.6829 11.7532 56.3901 17.9149 55.0697L21.2481 54.3558L21.7369 54.5516C27.3352 56.7895 31.0689 61.9477 31.4909 67.8854ZM21.3488 40.7312H20.2174V52.2616L17.4409 52.8567C16.8424 52.9845 16.2619 53.1565 15.6917 53.3466V50.7918C16.1171 50.4456 16.5007 50.0406 16.8141 49.571L17.7645 48.1454L15.8818 46.8907L14.9314 48.3163C14.3204 49.235 13.2965 49.7826 12.1933 49.7826C10.7406 49.7826 9.51753 48.8288 9.08306 47.5198H9.76644C11.7577 47.5198 13.5488 46.4121 14.4392 44.6312L12.4151 43.6186C11.9116 44.629 10.8967 45.2569 9.76757 45.2569H8.90317V42.9941H7.24563C6.91186 42.9941 6.64032 42.7225 6.64032 42.3888C6.64032 42.2688 6.6754 42.1523 6.74215 42.0527L7.95277 40.2368C8.57392 39.3034 8.90317 38.2183 8.90317 37.0982V33.9427H12.2974C13.5511 33.9427 14.6361 33.2514 15.2233 32.2376L18.4614 33.1631C19.4955 33.4584 20.2174 34.4145 20.2174 35.4905V38.4684H21.3488C21.9722 38.4684 22.4802 38.9753 22.4802 39.5998C22.4802 40.2243 21.9722 40.7312 21.3488 40.7312ZM22.4802 47.8739V42.8006C23.7972 42.3333 24.7431 41.0752 24.7431 39.5998C24.7431 38.1244 23.7972 36.8663 22.4802 36.399V35.4905C22.4802 33.4109 21.0841 31.5588 19.0837 30.9885L15.6363 30.0031C15.3738 28.3908 13.9821 27.1541 12.2974 27.1541H11.166V29.417H12.2974C12.9208 29.417 13.4289 29.925 13.4289 30.5484C13.4289 31.1718 12.9208 31.6798 12.2974 31.6798H4.22926L5.83362 29.2733L3.89096 27.3295L7.07818 25.2047L5.89584 23.4306L12.7398 25.3857L11.6616 21.0716L22.4802 25.233V29.2835C22.4802 30.4941 23.1534 31.5837 24.2373 32.1256C24.5496 32.2818 24.7431 32.5963 24.7431 32.9448V36.2055H24.7487C24.7487 36.2236 24.7431 36.2406 24.7431 36.2598C24.7431 37.1967 25.0248 38.0984 25.5577 38.8678L26.912 40.824C26.5488 43.7069 24.9083 46.3046 22.4802 47.8739ZM25.2488 30.1026C24.9773 29.9669 24.8042 29.71 24.7612 29.417H31.5124C31.4694 29.71 31.2963 29.9669 31.0247 30.1015C30.3493 30.4398 29.8526 31.01 29.5596 31.6798H29.322C28.4406 31.6798 27.6248 31.9423 26.9256 32.3745C26.7491 31.4026 26.1574 30.5563 25.2488 30.1026ZM51.8972 67.8854H42.8459V59.7572C43.2011 59.884 43.579 59.9654 43.9773 59.9654H50.7658C51.1629 59.9654 51.542 59.8919 51.8972 59.7663V67.8854ZM51.8972 55.4397V56.5711C51.8972 57.1957 51.3892 57.7026 50.7658 57.7026H43.9773C43.3539 57.7026 42.8459 57.1957 42.8459 56.5711V53.0094C43.6605 53.1169 44.4853 53.1769 45.3191 53.1769H45.7072C47.8501 53.1769 49.9308 52.8001 51.8972 52.1156V55.4397ZM60.9486 67.8854H54.1601V57.7026H60.9486V67.8854ZM60.9486 55.4397H54.1601V51.1618C55.9262 50.2703 57.5657 49.1071 59.006 47.668L59.7391 46.9359C60.1872 46.4879 60.5832 46.0037 60.9486 45.5013V55.4397ZM58.1393 45.335L57.4061 46.067C54.28 49.1931 50.1266 50.914 45.7072 50.914H45.3191C39.8917 50.914 34.806 48.2495 31.7172 43.7861L27.4189 37.5791C27.1485 37.1899 27.0059 36.7339 27.0059 36.2598C27.0059 34.9813 28.0446 33.9427 29.3231 33.9427H29.7757C30.5145 33.9427 31.2148 34.2991 31.6504 34.8976L36.8674 42.0708C38.8338 44.7749 42.0041 46.3883 45.3463 46.3883C49.7385 46.3883 53.6985 43.6152 55.1999 39.4867L55.7576 37.9536C56.4614 36.02 57.6437 34.3364 59.2062 33.033C60.3252 34.6249 60.9486 36.5427 60.9486 38.551C60.9486 41.1148 59.9507 43.5236 58.1393 45.335ZM67.7372 55.9138C67.7372 56.9004 66.935 57.7026 65.9484 57.7026C65.756 57.7026 65.566 57.672 65.3827 57.6109L63.2115 56.8879V55.9081L65.5716 53.548C65.8115 53.3081 66.1294 53.1769 66.4688 53.1769C67.1681 53.1769 67.7372 53.746 67.7372 54.4452V55.9138Z" fill="#FFA648"/>
<path d="M14.5603 36.2056C12.6889 36.2056 11.166 37.7285 11.166 39.5998V40.7313H13.4289V39.5998C13.4289 38.9753 13.9369 38.4684 14.5603 38.4684C15.1837 38.4684 15.6917 38.9753 15.6917 39.5998V40.7313H17.9546V39.5998C17.9546 37.7285 16.4317 36.2056 14.5603 36.2056Z" fill="#FFA648"/>
</svg>
