<svg width="70" height="70" viewBox="0 0 70 70" fill="none" xmlns="http://www.w3.org/2000/svg">
<path d="M22.1351 48.2667C22.1357 46.7918 21.7816 45.3384 21.1028 44.029C20.4239 42.7196 19.4402 41.5926 18.2345 40.7431V40.3298C18.2345 38.4267 17.4786 36.6016 16.1329 35.256C14.7872 33.9103 12.9621 33.1543 11.059 33.1543C9.15599 33.1543 7.33087 33.9103 5.98521 35.256C4.63954 36.6016 3.88355 38.4267 3.88355 40.3298V40.7431C2.68103 41.5945 1.7006 42.7223 1.02478 44.0315C0.348956 45.3408 -0.00249067 46.7933 1.32866e-05 48.2667V64.684C1.32866e-05 65.8852 0.477165 67.0371 1.3265 67.8864C2.17584 68.7358 3.32778 69.2129 4.52893 69.2129H17.6062C18.8073 69.2129 19.9592 68.7358 20.8086 67.8864C21.6579 67.0371 22.1351 65.8852 22.1351 64.684V48.2667ZM6.14801 40.3298C6.14801 39.0296 6.66453 37.7826 7.58393 36.8632C8.50334 35.9438 9.75032 35.4272 11.0506 35.4272C12.3508 35.4272 13.5978 35.9438 14.5172 36.8632C15.4366 37.7826 15.9531 39.0296 15.9531 40.3298V51.0293C15.9531 51.5989 15.7272 52.1452 15.325 52.5485C14.9228 52.9518 14.3771 53.1791 13.8075 53.1806H8.31623C8.0323 53.1828 7.75073 53.1288 7.48777 53.0217C7.22481 52.9146 6.98565 52.7565 6.78409 52.5565C6.58252 52.3565 6.42254 52.1186 6.31337 51.8565C6.2042 51.5944 6.148 51.3133 6.14801 51.0293V40.3298ZM19.2366 66.3144C19.0266 66.5257 18.777 66.6934 18.5021 66.808C18.2271 66.9227 17.9323 66.9819 17.6345 66.9824H4.55723C3.95666 66.9824 3.38069 66.7439 2.95602 66.3192C2.53135 65.8945 2.29277 65.3186 2.29277 64.718L2.26447 48.3007C2.24954 46.6536 2.82377 45.0554 3.88355 43.7944V51.0293C3.88505 52.2 4.35076 53.3223 5.17853 54.1501C6.00631 54.9778 7.12859 55.4435 8.29924 55.445H13.8075C14.3884 55.4465 14.9638 55.3334 15.5008 55.1122C16.0379 54.8909 16.526 54.5659 16.9372 54.1557C17.3485 53.7455 17.6747 53.2582 17.8973 52.7218C18.12 52.1853 18.2345 51.6102 18.2345 51.0293V43.7944C19.2929 45.0441 19.8727 46.6291 19.8706 48.2667V64.684C19.8812 64.9846 19.8305 65.2842 19.7215 65.5645C19.6125 65.8448 19.4475 66.1 19.2366 66.3144Z" fill="#FFA648"/>
<path d="M69.9661 48.2667C69.9721 46.793 69.6209 45.3398 68.9426 44.0315C68.2643 42.7232 67.279 41.5987 66.0712 40.7544V40.3298C66.0187 38.4631 65.2403 36.6905 63.9014 35.3887C62.5626 34.0869 60.7688 33.3586 58.9014 33.3586C57.0339 33.3586 55.2401 34.0869 53.9013 35.3887C52.5624 36.6905 51.784 38.4631 51.7315 40.3298V40.7431C50.5276 41.5943 49.5451 42.7216 48.8665 44.0307C48.1878 45.3397 47.8328 46.7923 47.831 48.2667L47.8593 64.684C47.8593 65.8852 48.3365 67.0371 49.1858 67.8865C50.0351 68.7358 51.1871 69.213 52.3882 69.213H65.4711C66.6722 69.213 67.8242 68.7358 68.6735 67.8865C69.5229 67.0371 70 65.8852 70 64.684L69.9661 48.2667ZM53.996 40.3411C54.0392 39.069 54.5749 37.8634 55.4902 36.9787C56.4054 36.0941 57.6285 35.5996 58.9014 35.5996C60.1742 35.5996 61.3973 36.0941 62.3125 36.9787C63.2278 37.8634 63.7635 39.069 63.8067 40.3411V51.0294C63.8067 51.5999 63.5801 52.1471 63.1767 52.5505C62.7732 52.954 62.226 53.1806 61.6555 53.1806H56.1472C55.5767 53.1806 55.0295 52.954 54.6261 52.5505C54.2226 52.1471 53.996 51.5999 53.996 51.0294V40.3411ZM67.0732 66.3144C66.8632 66.5257 66.6136 66.6934 66.3387 66.8081C66.0638 66.9227 65.769 66.982 65.4711 66.9825H52.3882C51.7876 66.9825 51.2117 66.7439 50.787 66.3192C50.3623 65.8946 50.1238 65.3186 50.1238 64.718L50.0954 48.3007C50.0978 46.6639 50.6771 45.0803 51.7315 43.8284V51.0294C51.733 52.2 52.1987 53.3223 53.0265 54.1501C53.8543 54.9779 54.9766 55.4436 56.1472 55.4451H61.6555C62.8262 55.4436 63.9484 54.9779 64.7762 54.1501C65.604 53.3223 66.0697 52.2 66.0712 51.0294V43.8001C67.1288 45.0476 67.7069 46.6313 67.7016 48.2667L67.7356 64.684C67.7396 64.9863 67.683 65.2862 67.5692 65.5662C67.4555 65.8462 67.2868 66.1006 67.0732 66.3144Z" fill="#FFA648"/>
<path d="M14.4529 28.7131C14.0784 28.7189 13.7117 28.6051 13.4063 28.3883C13.1009 28.1714 12.8725 27.8628 12.7546 27.5073L11.7129 24.422L8.63891 23.3803C8.279 23.2651 7.965 23.0385 7.74222 22.7333C7.51944 22.428 7.39938 22.0599 7.39938 21.682C7.39938 21.3041 7.51944 20.9359 7.74222 20.6307C7.965 20.3254 8.279 20.0989 8.63891 19.9836L11.7186 18.9363L12.7659 15.8623C12.8811 15.5024 13.1077 15.1884 13.4129 14.9656C13.7182 14.7429 14.0863 14.6228 14.4642 14.6228C14.8421 14.6228 15.2103 14.7429 15.5155 14.9656C15.8208 15.1884 16.0473 15.5024 16.1626 15.8623L17.2099 18.9363L20.2839 19.9836C20.6438 20.0989 20.9578 20.3254 21.1806 20.6307C21.4033 20.9359 21.5234 21.3041 21.5234 21.682C21.5234 22.0599 21.4033 22.428 21.1806 22.7333C20.9578 23.0385 20.6438 23.2651 20.2839 23.3803L17.1872 24.422L16.1399 27.5016C16.0235 27.8563 15.7973 28.1649 15.4941 28.3826C15.1908 28.6004 14.8262 28.7161 14.4529 28.7131ZM11.1808 21.8518L12.6696 22.3613C12.9333 22.4491 13.173 22.5971 13.3695 22.7937C13.566 22.9902 13.7141 23.2298 13.8019 23.4935L14.2887 24.9881C14.2887 25.0346 14.3072 25.0793 14.3401 25.1122C14.373 25.1451 14.4177 25.1636 14.4642 25.1636C14.5108 25.1636 14.5554 25.1451 14.5883 25.1122C14.6212 25.0793 14.6397 25.0346 14.6397 24.9881L15.1492 23.4992C15.237 23.2355 15.3851 22.9959 15.5816 22.7993C15.7781 22.6028 16.0177 22.4548 16.2814 22.367L17.7703 21.8575C17.8052 21.8481 17.836 21.8275 17.8579 21.7988C17.8799 21.7701 17.8918 21.7351 17.8918 21.699C17.8918 21.6629 17.8799 21.6278 17.8579 21.5991C17.836 21.5705 17.8052 21.5498 17.7703 21.5405L16.2305 21.0253C15.967 20.9371 15.7276 20.7889 15.5311 20.5924C15.3346 20.396 15.1865 20.1566 15.0983 19.8931L14.6397 18.4212C14.6285 18.3872 14.6069 18.3576 14.578 18.3366C14.549 18.3157 14.5141 18.3044 14.4784 18.3044C14.4426 18.3044 14.4078 18.3157 14.3788 18.3366C14.3498 18.3576 14.3282 18.3872 14.317 18.4212L13.7792 19.8931C13.6951 20.1542 13.5516 20.3923 13.3601 20.5887C13.1686 20.7851 12.9342 20.9345 12.6753 21.0253L11.1808 21.5348C11.1459 21.5442 11.1151 21.5648 11.0932 21.5935C11.0712 21.6221 11.0593 21.6572 11.0593 21.6933C11.0593 21.7294 11.0712 21.7645 11.0932 21.7931C11.1151 21.8218 11.1459 21.8424 11.1808 21.8518Z" fill="#FFA648"/>
<path d="M35.0198 15.7435C34.6451 15.7502 34.278 15.6368 33.9724 15.4198C33.6668 15.2028 33.4387 14.8937 33.3215 14.5377L32.2742 11.4637L29.1945 10.4107C28.8421 10.2917 28.536 10.0652 28.3191 9.7631C28.1022 9.46097 27.9856 9.09842 27.9856 8.72651C27.9856 8.3546 28.1022 7.99205 28.3191 7.68992C28.536 7.38779 28.8421 7.1613 29.1945 7.04232L32.2742 5.98935L33.3215 2.90969C33.4367 2.54978 33.6633 2.23579 33.9685 2.013C34.2738 1.79022 34.6419 1.67017 35.0198 1.67017C35.3977 1.67017 35.7659 1.79022 36.0711 2.013C36.3764 2.23579 36.6029 2.54978 36.7182 2.90969L37.7655 5.98369L40.8451 7.03666C41.1975 7.15563 41.5037 7.38213 41.7206 7.68426C41.9374 7.98639 42.0541 8.34894 42.0541 8.72085C42.0541 9.09276 41.9374 9.45531 41.7206 9.75744C41.5037 10.0596 41.1975 10.2861 40.8451 10.405L37.7655 11.458L36.7182 14.5377C36.601 14.8937 36.3728 15.2028 36.0672 15.4198C35.7616 15.6368 35.3946 15.7502 35.0198 15.7435ZM31.7477 8.88785L33.2366 9.39735C33.5005 9.48476 33.7403 9.63266 33.9369 9.82924C34.1335 10.0258 34.2814 10.2657 34.3688 10.5296L34.8783 12.0185C34.8877 12.0533 34.9083 12.0841 34.937 12.106C34.9656 12.128 35.0007 12.1399 35.0368 12.1399C35.0729 12.1399 35.108 12.128 35.1366 12.106C35.1653 12.0841 35.1859 12.0533 35.1953 12.0185L35.7048 10.5296C35.7922 10.2657 35.9401 10.0258 36.1367 9.82924C36.3333 9.63266 36.5731 9.48476 36.8371 9.39735L38.3259 8.88785C38.3599 8.87668 38.3895 8.85507 38.4105 8.8261C38.4314 8.79713 38.4427 8.76228 38.4427 8.72651C38.4427 8.69074 38.4314 8.65589 38.4105 8.62692C38.3895 8.59795 38.3599 8.57634 38.3259 8.56517L36.8371 8.05567C36.5731 7.96826 36.3333 7.82036 36.1367 7.62378C35.9401 7.42719 35.7922 7.18736 35.7048 6.92344L35.1953 5.43456C35.1859 5.39971 35.1653 5.36892 35.1366 5.34697C35.108 5.32502 35.0729 5.31313 35.0368 5.31313C35.0007 5.31313 34.9656 5.32502 34.937 5.34697C34.9083 5.36892 34.8877 5.39971 34.8783 5.43456L34.3688 6.92344C34.2814 7.18736 34.1335 7.42719 33.9369 7.62378C33.7403 7.82036 33.5005 7.96826 33.2366 8.05567L31.7477 8.56517C31.7137 8.57634 31.6841 8.59795 31.6632 8.62692C31.6422 8.65589 31.6309 8.69074 31.6309 8.72651C31.6309 8.76228 31.6422 8.79713 31.6632 8.8261C31.6841 8.85507 31.7137 8.87668 31.7477 8.88785Z" fill="#FFA648"/>
<path d="M68.2224 4.10417L65.1144 0.996202C64.799 0.68039 64.4243 0.429855 64.012 0.258919C63.5996 0.0879831 63.1577 0 62.7113 0C62.2649 0 61.8229 0.0879831 61.4105 0.258919C60.9982 0.429855 60.6236 0.68039 60.3081 0.996202L49.8803 11.4014C49.2864 11.9915 48.9313 12.7801 48.8832 13.616C48.8352 14.4518 49.0975 15.276 49.6199 15.9303L44.5249 21.0253C44.1479 21.4035 43.8881 21.8824 43.7767 22.4046C43.6652 22.9267 43.7068 23.47 43.8965 23.9691L41.683 26.1826C41.2298 26.0246 40.7533 25.9442 40.2733 25.9448C40.225 25.8571 40.1639 25.777 40.0922 25.7071C39.0882 24.7035 37.8087 24.0207 36.4161 23.7452C35.0235 23.4697 33.5805 23.6141 32.27 24.1598C30.9595 24.7056 29.8406 25.6283 29.0552 26.8108C28.2698 27.9934 27.8533 29.3825 27.8585 30.8021V31.2154C26.6533 32.064 25.6698 33.19 24.9909 34.4984C24.3121 35.8069 23.9578 37.2593 23.9579 38.7334V64.718C23.9579 65.9191 24.4351 67.0711 25.2844 67.9204C26.1338 68.7697 27.2857 69.2469 28.4869 69.2469H41.5641C42.7652 69.2469 43.9172 68.7697 44.7665 67.9204C45.6159 67.0711 46.093 65.9191 46.093 64.718V38.7164C46.0866 36.4076 45.2138 34.1853 43.6474 32.4891C44.1372 31.7023 44.3853 30.7889 44.3607 29.8624C44.3421 29.0218 44.0566 28.2089 43.5455 27.5413L45.4929 25.5542C45.992 25.7439 46.5353 25.7855 47.0575 25.6741C47.5796 25.5626 48.0586 25.3028 48.4367 24.9258L53.5827 19.7799C54.2335 20.1891 55.0039 20.3655 55.7679 20.2801C56.532 20.1948 57.2445 19.8528 57.7889 19.31L61.5309 15.5736C61.7023 15.3548 61.7872 15.0805 61.7694 14.8031C61.7516 14.5257 61.6323 14.2645 61.4343 14.0693C61.2364 13.8742 60.9736 13.7587 60.6959 13.7448C60.4183 13.7309 60.1452 13.8197 59.9288 13.9942L56.1925 17.7362C55.9853 17.9424 55.7064 18.0606 55.4141 18.0658C55.1218 18.0711 54.8388 17.9631 54.6243 17.7645L51.4371 14.5943C51.2347 14.3834 51.1217 14.1025 51.1217 13.8102C51.1217 13.5179 51.2347 13.237 51.4371 13.0261L61.9102 2.5983C62.0154 2.49303 62.1402 2.40952 62.2777 2.35254C62.4151 2.29556 62.5625 2.26624 62.7113 2.26624C62.8601 2.26624 63.0074 2.29556 63.1448 2.35254C63.2823 2.40952 63.4072 2.49303 63.5123 2.5983L66.6203 5.70061C66.7256 5.80576 66.8091 5.93063 66.8661 6.06808C66.923 6.20553 66.9524 6.35287 66.9524 6.50166C66.9524 6.65045 66.923 6.79779 66.8661 6.93524C66.8091 7.07269 66.7256 7.19756 66.6203 7.30271L64.7351 9.18787C64.5227 9.40032 64.4033 9.68847 64.4033 9.98892C64.4033 10.2894 64.5227 10.5775 64.7351 10.79C64.9476 11.0024 65.2357 11.1218 65.5362 11.1218C65.8366 11.1218 66.1248 11.0024 66.3372 10.79L68.2224 8.90481C68.8585 8.26793 69.2158 7.40462 69.2158 6.50449C69.2158 5.60437 68.8585 4.74105 68.2224 4.10417ZM38.5354 29.1264C38.7055 28.8892 38.9214 28.6883 39.1703 28.5357C39.4192 28.3831 39.696 28.2817 39.9846 28.2376C40.0864 28.2292 40.1886 28.2292 40.2903 28.2376C40.6971 28.2379 41.0933 28.3667 41.4226 28.6056C41.6408 28.7717 41.8156 28.9883 41.932 29.2367C42.0483 29.4852 42.1027 29.7581 42.0906 30.0322C42.0829 30.3909 41.9992 30.7439 41.845 31.0679C41.6909 31.3919 41.4697 31.6795 41.1961 31.9117C40.3099 32.6721 39.4985 33.5157 38.7731 34.4309C38.7397 34.4747 38.6941 34.5077 38.6421 34.526C38.5901 34.5442 38.5339 34.5469 38.4804 34.5337C38.4269 34.5204 38.3785 34.4919 38.341 34.4515C38.3034 34.4111 38.2785 34.3607 38.2693 34.3063C37.8504 31.8947 38.1617 29.6359 38.5354 29.1264ZM30.1173 30.7851C30.1175 29.8916 30.3617 29.0151 30.8234 28.2501C31.2852 27.4852 31.947 26.8608 32.7375 26.4442C33.528 26.0277 34.4172 25.8349 35.3093 25.8866C36.2013 25.9382 37.0623 26.2324 37.7994 26.7374C37.3807 27.0208 37.0148 27.3752 36.7182 27.7847C35.518 29.4151 35.501 33.8761 36.6785 36.9614C36.7833 37.2388 36.9613 37.4827 37.1935 37.6671C37.4258 37.8515 37.7036 37.9696 37.9976 38.0087C38.2779 38.0326 38.5595 37.9812 38.8133 37.8598C39.0671 37.7383 39.2839 37.5513 39.4412 37.3181C39.5657 37.1256 39.7299 36.8878 39.9224 36.6274V41.4564C39.9224 42.0259 39.6965 42.5722 39.2943 42.9755C38.8921 43.3788 38.3463 43.6061 37.7768 43.6076H32.2628C31.6933 43.6061 31.1476 43.3788 30.7453 42.9755C30.3431 42.5722 30.1173 42.0259 30.1173 41.4564V30.7851ZM43.8229 38.7107V64.6953C43.8229 65.2959 43.5843 65.8719 43.1596 66.2966C42.735 66.7212 42.159 66.9598 41.5584 66.9598H28.4812C27.8806 66.9598 27.3047 66.7212 26.88 66.2966C26.4553 65.8719 26.2167 65.2959 26.2167 64.6953V38.7164C26.2147 37.0788 26.7945 35.4937 27.8528 34.2441V41.4677C27.8528 42.6378 28.3173 43.7601 29.1441 44.5881C29.971 45.416 31.0927 45.8819 32.2628 45.8834H37.7768C38.9469 45.8819 40.0686 45.416 40.8955 44.5881C41.7224 43.7601 42.1868 42.6378 42.1868 41.4677V34.2384C43.2499 35.4875 43.8303 37.0761 43.8229 38.7164V38.7107ZM51.1824 17.5437L51.8957 18.257L46.8006 23.352C46.7061 23.4466 46.5778 23.4998 46.444 23.4998C46.3102 23.4998 46.1819 23.4466 46.0873 23.352C45.9928 23.2575 45.9396 23.1292 45.9396 22.9954C45.9396 22.8616 45.9928 22.7333 46.0873 22.6387L51.1824 17.5437Z" fill="#FFA648"/>
</svg>
