<svg width="20" height="23" viewBox="0 0 20 23" fill="none" xmlns="http://www.w3.org/2000/svg">
<path d="M16.0104 12.0805C16.0002 10.2074 16.8447 8.79369 18.5541 7.75254C17.5977 6.37963 16.1528 5.62427 14.245 5.47627C12.4389 5.3334 10.465 6.53275 9.74259 6.53275C8.97946 6.53275 7.22935 5.52734 5.85571 5.52734C3.01689 5.57325 0 7.79849 0 12.3255C0 13.6627 0.2442 15.0441 0.732601 16.4697C1.3838 18.3427 3.73423 22.9361 6.18641 22.8595C7.46847 22.8289 8.37402 21.946 10.0427 21.946C11.6605 21.946 12.5 22.8595 13.9296 22.8595C16.4021 22.8238 18.5287 18.649 19.1494 16.7708C15.8323 15.204 16.0104 12.1775 16.0104 12.0805ZM13.1308 3.70019C14.5197 2.04659 14.3925 0.540993 14.3519 0C13.1258 0.0714518 11.7063 0.837009 10.8975 1.7812C10.0071 2.79173 9.48312 4.04214 9.59505 5.45076C10.9229 5.55286 12.1337 4.86896 13.1308 3.70019Z" fill="black"/>
</svg>
