<svg width="80" height="81" viewBox="0 0 80 81" fill="none" xmlns="http://www.w3.org/2000/svg">
<path d="M41.4529 18.7998H36.7442V10.7999C36.7442 10.2707 36.313 9.84012 35.783 9.84012H21.9159C21.386 9.84012 20.9549 10.2707 20.9549 10.7999V18.7998H16.2461V10.7999C16.2461 7.67424 18.7896 5.13135 21.9159 5.13135H35.783C38.9094 5.13135 41.4529 7.67424 41.4529 10.7999V18.7998Z" fill="#D5E3F4"/>
<path d="M57.0085 24.5789V50.1663C57.0085 52.4692 55.1416 54.3361 52.8387 54.3361H4.86069C2.55779 54.3361 0.690918 52.4692 0.690918 50.1663V24.5789H57.0085Z" fill="#004CD1"/>
<path d="M50.7298 19.2375V50.1663C50.7298 52.4692 48.863 54.3361 46.5601 54.3361H52.8384C55.1413 54.3361 57.0082 52.4692 57.0082 50.1663V19.2375H50.7298Z" fill="#004CD1"/>
<path d="M28.9174 43.0782C27.1376 43.0782 25.6948 41.6354 25.6948 39.8556V31.2998H32.1397V39.8556C32.1397 41.6354 30.6971 43.0782 28.9174 43.0782Z" fill="#F3F4FA"/>
<path d="M0.690918 19.2599V26.4447C0.690918 27.8629 1.65967 29.0931 3.02678 29.4113L27.4999 35.1065C28.4314 35.3233 29.4006 35.3129 30.3275 35.0761L54.7349 28.8398C56.0719 28.4982 57.0085 27.2824 57.0085 25.8885V19.2601C57.0085 16.9448 55.1517 15.0679 52.861 15.0679H4.83841C2.54774 15.0677 0.690918 16.9446 0.690918 19.2599Z" fill="#004CD1"/>
<path d="M52.8609 15.0679H46.5825C48.8732 15.0679 50.73 16.9448 50.73 19.2601V29.863L54.7348 28.8398C56.0718 28.4981 57.0084 27.2824 57.0084 25.8885V19.2601C57.0084 16.9448 55.1514 15.0679 52.8609 15.0679Z" fill="#004CD1"/>
<path d="M75.8261 30.0251H64.761C63.2545 30.0251 62.033 31.2596 62.033 32.7823C62.033 34.305 63.2543 35.5394 64.761 35.5394H69.0141L44.3461 60.427L35.2286 51.2115C34.1772 50.1486 32.4224 50.1486 31.3709 51.2115L8.21205 74.6117C7.14677 75.6885 7.14677 77.4343 8.21205 78.5109C9.26462 79.5748 11.0174 79.5748 12.0698 78.5109L33.2996 57.0603L42.4171 66.2758C43.4685 67.3387 45.2233 67.3387 46.2748 66.2758L73.098 39.2101V43.9663C73.098 45.4891 74.3193 46.7234 75.826 46.7234C77.3326 46.7234 78.5539 45.4889 78.5539 43.9663V32.7823C78.5541 31.2596 77.3328 30.0251 75.8261 30.0251Z" fill="#004CD1"/>
<path d="M71.597 1.90761L73.2514 5.26967C73.4096 5.59128 73.7155 5.81416 74.0693 5.86565L77.7685 6.4048C78.6594 6.53461 79.0152 7.63285 78.3704 8.2632L75.6936 10.8802C75.4376 11.1305 75.3209 11.4911 75.3813 11.8445L76.0132 15.5398C76.1655 16.4298 75.2341 17.1085 74.4372 16.6883L71.1285 14.9435C70.8121 14.7767 70.4339 14.7767 70.1175 14.9435L66.8088 16.6883C66.0119 17.1085 65.0805 16.4298 65.2328 15.5398L65.8647 11.8445C65.9251 11.4911 65.8084 11.1305 65.5524 10.8802L62.8756 8.2632C62.2309 7.63285 62.5866 6.53476 63.4775 6.4048L67.1767 5.86565C67.5305 5.81401 67.8364 5.59128 67.9946 5.26967L69.649 1.90761C70.0474 1.09785 71.1985 1.09785 71.597 1.90761Z" fill="#FFA648"/>
<path fill-rule="evenodd" clip-rule="evenodd" d="M21.9159 5.82213C19.1709 5.82213 16.9369 8.05587 16.9369 10.7999V14.3769H20.264V10.7999C20.264 9.88816 21.0053 9.1492 21.9159 9.1492H35.7829C36.6935 9.1492 37.4349 9.88809 37.4349 10.7999V14.3769H40.762V10.7999C40.762 8.05588 38.528 5.82213 35.7829 5.82213H21.9159ZM15.5552 10.7999C15.5552 7.29248 18.4082 4.44043 21.9159 4.44043H35.7829C39.2907 4.44043 42.1437 7.29247 42.1437 10.7999V15.0677C42.1437 15.4493 41.8344 15.7586 41.4529 15.7586H36.7441C36.3626 15.7586 36.0533 15.4493 36.0533 15.0677V10.7999C36.0533 10.6531 35.9323 10.5309 35.7829 10.5309H21.9159C21.7666 10.5309 21.6456 10.653 21.6456 10.7999V15.0677C21.6456 15.4493 21.3363 15.7586 20.9548 15.7586H16.246C15.8645 15.7586 15.5552 15.4493 15.5552 15.0677V10.7999Z" fill="#012463"/>
<path fill-rule="evenodd" clip-rule="evenodd" d="M37.6289 54.3364C37.6289 53.9548 37.9382 53.6455 38.3198 53.6455H50.3832C50.7647 53.6455 51.074 53.9548 51.074 54.3364C51.074 54.7179 50.7647 55.0272 50.3832 55.0272H38.3198C37.9382 55.0272 37.6289 54.7179 37.6289 54.3364Z" fill="#012463"/>
<path fill-rule="evenodd" clip-rule="evenodd" d="M11.3271 15.0678C11.3271 14.6863 11.6365 14.377 12.018 14.377H52.8385C55.523 14.377 57.6991 16.5531 57.6991 19.2376V47.652C57.6991 48.0336 57.3898 48.3429 57.0083 48.3429C56.6267 48.3429 56.3174 48.0336 56.3174 47.652V19.2376C56.3174 17.3162 54.7599 15.7586 52.8385 15.7586H12.018C11.6365 15.7586 11.3271 15.4493 11.3271 15.0678Z" fill="#012463"/>
<path fill-rule="evenodd" clip-rule="evenodd" d="M4.86062 15.7586C2.93926 15.7586 1.3817 17.3162 1.3817 19.2376V50.1665C1.3817 52.0879 2.93927 53.6455 4.86062 53.6455H28.2783C28.6598 53.6455 28.9691 53.9548 28.9691 54.3363C28.9691 54.7179 28.6598 55.0272 28.2783 55.0272H4.86062C2.17618 55.0272 0 52.851 0 50.1665V19.2376C0 16.5531 2.17618 14.377 4.86062 14.377H7.04769C7.42924 14.377 7.73854 14.6863 7.73854 15.0678C7.73854 15.4493 7.42924 15.7586 7.04769 15.7586H4.86062Z" fill="#012463"/>
<path fill-rule="evenodd" clip-rule="evenodd" d="M25.6948 34.062C26.0763 34.062 26.3856 34.3713 26.3856 34.7529V39.8556C26.3856 41.2538 27.5191 42.3873 28.9173 42.3873C30.3155 42.3873 31.449 41.2538 31.449 39.8556V34.7529C31.449 34.3713 31.7583 34.062 32.1398 34.062C32.5214 34.062 32.8307 34.3713 32.8307 34.7529V39.8556C32.8307 42.0169 31.0786 43.769 28.9173 43.769C26.756 43.769 25.0039 42.0169 25.0039 39.8556V34.7529C25.0039 34.3713 25.3132 34.062 25.6948 34.062Z" fill="#012463"/>
<path fill-rule="evenodd" clip-rule="evenodd" d="M57.0084 25.1975C57.39 25.1975 57.6993 25.5068 57.6993 25.8884C57.6993 27.5934 56.5531 29.0882 54.9058 29.509L30.4984 35.7453C30.4984 35.7453 30.4984 35.7453 30.4984 35.7453C29.4642 36.0096 28.3826 36.0211 27.3432 35.7793L27.4877 35.1582L27.3432 35.7793L2.87013 30.084L2.87012 30.084C1.18552 29.692 0 28.1792 0 26.4446C0 26.0631 0.309303 25.7538 0.690848 25.7538C1.07239 25.7538 1.3817 26.0631 1.3817 26.4446C1.3817 27.5463 2.13367 28.494 3.1833 28.7383C3.1833 28.7383 3.1833 28.7383 3.1833 28.7383L27.6564 34.4335C28.48 34.6252 29.3369 34.616 30.1564 34.4066L30.1564 34.4066L54.5638 28.1703L54.7348 28.8392L54.5639 28.1703C55.5905 27.908 56.3176 26.9712 56.3176 25.8884C56.3176 25.5068 56.6269 25.1975 57.0084 25.1975Z" fill="#012463"/>
<path fill-rule="evenodd" clip-rule="evenodd" d="M61.3632 32.8455C61.3632 30.9408 62.8892 29.3875 64.7833 29.3875H75.8545C77.7486 29.3875 79.2746 30.9408 79.2746 32.8455V44.057C79.2746 45.9617 77.7486 47.5151 75.8545 47.5151C73.9605 47.5151 72.4344 45.9617 72.4344 44.057V40.9717L66.7291 46.7396C66.4602 47.0114 66.0229 47.0128 65.7524 46.7426C65.4819 46.4725 65.4805 46.0331 65.7494 45.7613L72.6352 38.8C72.8324 38.6006 73.1298 38.5405 73.3884 38.6476C73.647 38.7548 73.8157 39.0081 73.8157 39.2891V44.057C73.8157 45.2056 74.7336 46.1273 75.8545 46.1273C76.9754 46.1273 77.8934 45.2056 77.8934 44.057V32.8455C77.8934 31.6969 76.9754 30.7752 75.8545 30.7752H64.7833C63.6623 30.7752 62.7444 31.6969 62.7444 32.8455C62.7444 33.9939 63.6623 34.9155 64.7833 34.9155H69.0387C69.3177 34.9155 69.5692 35.0841 69.6764 35.3429C69.7835 35.6017 69.7252 35.8998 69.5286 36.0986L44.8467 61.0475C44.717 61.1786 44.5406 61.2523 44.3566 61.2522C44.1726 61.2521 43.9963 61.1783 43.8667 61.047L34.7442 51.8087C33.9623 51.0168 32.6468 51.0168 31.8649 51.8087L31.8648 51.8088L8.69319 75.2668C7.89444 76.0757 7.89449 77.3894 8.69315 78.1981C9.47618 78.9911 10.7897 78.9911 11.5725 78.1982L11.5726 78.1981L32.8142 56.6944C32.9438 56.5632 33.1203 56.4893 33.3044 56.4893C33.4885 56.4894 33.665 56.5632 33.7946 56.6945L42.9171 65.9328C43.699 66.7248 45.0145 66.7248 45.7964 65.9329L62.463 49.0832C62.7319 48.8114 63.1692 48.8101 63.4397 49.0802C63.7103 49.3503 63.7116 49.7897 63.4427 50.0615L46.777 66.9102C45.4548 68.2494 43.2588 68.2494 41.9366 66.9103C41.9366 66.9102 41.9366 66.9103 41.9366 66.9103L33.3043 58.1684L12.5531 79.1756C12.5531 79.1756 12.553 79.1756 12.553 79.1757C11.2298 80.5157 9.03589 80.5156 7.71266 79.1756C6.37961 77.8258 6.37967 75.6393 7.71265 74.2894L7.71273 74.2893L30.8843 50.8313C30.8843 50.8313 30.8843 50.8313 30.8844 50.8312C32.2066 49.4922 34.4026 49.4922 35.7247 50.8313L44.3574 59.5736L67.3785 36.3033H64.7833C62.8893 36.3033 61.3632 34.7501 61.3632 32.8455Z" fill="#012463"/>
<path fill-rule="evenodd" clip-rule="evenodd" d="M70.7481 2.50833L69.1766 5.75093C69.1766 5.75097 69.1766 5.7509 69.1766 5.75093C68.8476 6.42988 68.2107 6.90135 67.473 7.01067L67.4727 7.01071L63.9512 7.53181L66.502 10.0637C67.0346 10.5926 67.2768 11.3532 67.1514 12.098L66.55 15.6684L69.6939 13.9852C70.3537 13.6319 71.1425 13.6319 71.8023 13.9852L74.9462 15.6684L74.3449 12.0981C74.2195 11.3533 74.4616 10.5926 74.9943 10.0637L74.9944 10.0636L77.5451 7.53181L74.0238 7.01075C74.0237 7.01074 74.0236 7.01072 74.0235 7.01071C73.2852 6.90154 72.6485 6.42957 72.3197 5.75103C72.3197 5.751 72.3197 5.75107 72.3197 5.75103L70.7481 2.50833ZM77.7216 7.55793C77.7216 7.55794 77.7216 7.55793 77.7216 7.55793ZM63.826 7.40747L63.7627 7.47315ZM68.7186 1.28368C69.5481 -0.428099 71.9482 -0.427662 72.7777 1.2836L74.4108 4.65317L78.0609 5.19331C78.0609 5.19332 78.0609 5.19331 78.0609 5.19331C79.9207 5.46846 80.6533 7.7884 79.3157 9.11614C79.3157 9.11615 79.3157 9.11614 79.3157 9.11614L76.6723 11.7399L77.2965 15.4458C77.2965 15.4458 77.2965 15.4457 77.2965 15.4458C77.6119 17.3176 75.6789 18.762 74.0122 17.8697L70.7481 16.1222L67.4841 17.8697C65.8174 18.762 63.8844 17.3177 64.1998 15.4458C64.1998 15.4458 64.1997 15.4459 64.1998 15.4458L64.8239 11.7399L62.1806 9.11614C60.8433 7.78844 61.5755 5.46877 63.4352 5.19334L67.0855 4.65317L68.7186 1.28368C68.7186 1.28365 68.7185 1.28371 68.7186 1.28368ZM74.4315 4.6959C74.4315 4.69586 74.4315 4.69594 74.4315 4.6959ZM74.3627 4.64607C74.3628 4.64608 74.3629 4.64609 74.363 4.6461Z" fill="#012463"/>
<path fill-rule="evenodd" clip-rule="evenodd" d="M75.2568 21.3811C75.9069 21.3811 76.434 21.9082 76.434 22.5583V25.4358C76.434 26.086 75.9069 26.613 75.2568 26.613C74.6066 26.613 74.0796 26.086 74.0796 25.4358V22.5583C74.0796 21.9082 74.6066 21.3811 75.2568 21.3811Z" fill="#012463"/>
<path fill-rule="evenodd" clip-rule="evenodd" d="M70.6225 18.8699C71.2727 18.8699 71.7997 19.3969 71.7997 20.0471V25.4359C71.7997 26.0861 71.2727 26.6131 70.6225 26.6131C69.9724 26.6131 69.4453 26.0861 69.4453 25.4359V20.0471C69.4453 19.3969 69.9724 18.8699 70.6225 18.8699Z" fill="#012463"/>
<path fill-rule="evenodd" clip-rule="evenodd" d="M65.9887 21.3811C66.6389 21.3811 67.1659 21.9082 67.1659 22.5583V25.4358C67.1659 26.086 66.6389 26.613 65.9887 26.613C65.3386 26.613 64.8115 26.086 64.8115 25.4358V22.5583C64.8115 21.9082 65.3386 21.3811 65.9887 21.3811Z" fill="#012463"/>
</svg>
