<svg width="80" height="80" viewBox="0 0 80 80" fill="none" xmlns="http://www.w3.org/2000/svg">
<path d="M24.3163 34.06V37.848H16.7402V34.06C16.7402 31.9679 18.4361 30.272 20.5283 30.272C22.6204 30.272 24.3163 31.9679 24.3163 34.06Z" fill="#FFA648"/>
<path d="M39.9999 51.9944C44.184 51.9944 47.5759 48.6025 47.5759 44.4183C47.5759 40.2342 44.184 36.8423 39.9999 36.8423C35.8157 36.8423 32.4238 40.2342 32.4238 44.4183C32.4238 48.6025 35.8157 51.9944 39.9999 51.9944Z" fill="#FFA648"/>
<path d="M43.6578 37.7834C44.2568 38.8679 44.5988 40.1143 44.5988 41.441C44.5988 45.6251 41.2069 49.017 37.0228 49.017C35.6961 49.017 34.4497 48.6752 33.3652 48.076C34.6557 50.4118 37.1428 51.9945 40.0002 51.9945C44.1843 51.9945 47.5762 48.6025 47.5762 44.4184C47.5762 41.5608 45.9936 39.0739 43.6578 37.7834Z" fill="#FFA648"/>
<path d="M55.6841 34.06V37.848H63.2601V34.06C63.2601 31.9679 61.5642 30.272 59.4721 30.272C57.38 30.272 55.6841 31.9679 55.6841 34.06Z" fill="#FFA648"/>
<path d="M55.6841 37.8481V49.3546L48.4317 51.9942H31.5687L24.3163 49.3546V37.8481H16.7402V50.7685C16.7402 52.3706 17.5004 53.8776 18.7886 54.8299L29.2586 62.5695C29.6613 62.8672 29.8988 63.3381 29.8988 63.8387V78.826H50.1015V63.8386C50.1015 63.338 50.339 62.867 50.7416 62.5694L61.2116 54.8298C62.4999 53.8775 63.26 52.3703 63.26 50.7683V37.8479L55.6841 37.8481Z" fill="#004CD1"/>
<path d="M60.1035 37.8481V50.7685C60.1035 51.3667 59.8163 51.9359 59.3354 52.2914L48.2251 60.5043C47.42 61.0994 46.9448 62.0414 46.9448 63.0427V78.826H50.1015V63.8386C50.1015 63.338 50.339 62.867 50.7416 62.5694L61.2116 54.8298C62.4999 53.8775 63.26 52.3703 63.26 50.7683V37.8479L60.1035 37.8481Z" fill="#004CD1"/>
<path d="M41.4156 2.05169L43.9616 7.21046C44.1915 7.67622 44.636 7.99918 45.15 8.07387L50.843 8.90119C52.1376 9.08931 52.6545 10.6802 51.7177 11.5933L47.5981 15.6088C47.2261 15.9715 47.0564 16.4938 47.1442 17.0058L48.1167 22.6758C48.3377 23.9651 46.9845 24.9484 45.8266 24.3397L40.7345 21.6627C40.2747 21.421 39.7253 21.421 39.2657 21.6627L34.1736 24.3397C33.0157 24.9484 31.6624 23.9651 31.8835 22.6758L32.856 17.0058C32.9438 16.4938 32.7741 15.9713 32.4021 15.6088L28.2825 11.5933C27.3458 10.6802 27.8627 9.08931 29.1572 8.90119L34.8502 8.07387C35.3642 7.99918 35.8086 7.67622 36.0386 7.21046L38.5846 2.05169C39.1638 0.878602 40.8366 0.878602 41.4156 2.05169Z" fill="#FFA648"/>
<path d="M51.7174 11.5932C52.6541 10.6801 52.1373 9.08919 50.8426 8.90107L46.4813 8.26733C44.9067 14.0358 39.6326 18.2775 33.3648 18.2775C33.122 18.2775 32.8808 18.2705 32.6409 18.258L31.8833 22.6758C31.6622 23.9652 33.0155 24.9484 34.1734 24.3397L39.2654 21.6627C39.7253 21.421 40.2746 21.421 40.7343 21.6627L45.8264 24.3397C46.9843 24.9484 48.3375 23.9652 48.1164 22.6758L47.144 17.0058C47.0562 16.4938 47.2258 15.9713 47.5979 15.6088L51.7174 11.5932Z" fill="#FFA648"/>
<path d="M67.7899 8.10138L63.1024 14.1986C62.3044 15.2365 63.0444 16.7388 64.3537 16.7388H65.8845V26.7405C65.8845 27.6122 66.5912 28.3189 67.4629 28.3189H70.6195C71.4912 28.3189 72.1979 27.6122 72.1979 26.7405V16.7388H73.7286C75.038 16.7388 75.778 15.2365 74.98 14.1986L70.2926 8.10138C69.6608 7.27968 68.4218 7.27968 67.7899 8.10138Z" fill="#FFA648"/>
<path d="M9.70738 8.1016L5.01985 14.1989C4.22191 15.2369 4.96189 16.7392 6.27122 16.7392H7.80196V26.7409C7.80196 27.6126 8.50866 28.3193 9.38036 28.3193H12.537C13.4087 28.3193 14.1154 27.6126 14.1154 26.7409V16.7392H15.6461C16.9555 16.7392 17.6954 15.2369 16.8975 14.1989L12.2101 8.10176C11.5781 7.27991 10.3391 7.27991 9.70738 8.1016Z" fill="#FFA648"/>
<path d="M74.8667 34.0632L75.802 35.9583C75.8865 36.1294 76.0496 36.248 76.2385 36.2755L78.33 36.5794C78.8056 36.6484 78.9955 37.2329 78.6514 37.5684L77.138 39.0435C77.0013 39.1768 76.939 39.3687 76.9713 39.5568L77.3286 41.6399C77.4099 42.1136 76.9127 42.4747 76.4873 42.2511L74.6165 41.2677C74.4476 41.1789 74.2458 41.1789 74.0769 41.2677L72.2061 42.2511C71.7807 42.4747 71.2835 42.1134 71.3647 41.6399L71.7221 39.5568C71.7543 39.3687 71.6919 39.1768 71.5554 39.0435L70.042 37.5684C69.6978 37.2329 69.8878 36.6484 70.3634 36.5794L72.4549 36.2755C72.6438 36.248 72.807 36.1294 72.8914 35.9583L73.8267 34.0632C74.0395 33.6323 74.654 33.6323 74.8667 34.0632Z" fill="#FFA648"/>
<path d="M5.13328 34.0632L4.19799 35.9583C4.11346 36.1294 3.95034 36.248 3.76144 36.2755L1.66994 36.5794C1.19433 36.6484 1.00449 37.2329 1.34854 37.5684L2.86194 39.0435C2.99865 39.1768 3.06099 39.3687 3.02865 39.5568L2.67132 41.6399C2.59007 42.1136 3.08724 42.4747 3.5127 42.2511L5.38343 41.2677C5.55233 41.1789 5.7542 41.1789 5.9231 41.2677L7.79383 42.2511C8.21929 42.4747 8.71646 42.1134 8.63521 41.6399L8.27788 39.5568C8.24569 39.3687 8.30803 39.1768 8.44459 39.0435L9.95799 37.5684C10.3022 37.2329 10.1122 36.6484 9.63659 36.5794L7.54509 36.2755C7.35619 36.248 7.19291 36.1294 7.10854 35.9583L6.17325 34.0632C5.96044 33.6323 5.34593 33.6323 5.13328 34.0632Z" fill="#FFA648"/>
<path fill-rule="evenodd" clip-rule="evenodd" d="M20.5282 31.4438C19.0833 31.4438 17.912 32.615 17.912 34.06V36.6761H23.1444V34.06C23.1444 32.615 21.9732 31.4438 20.5282 31.4438ZM15.5684 34.06C15.5684 31.3206 17.7889 29.1001 20.5282 29.1001C23.2675 29.1001 25.4881 31.3206 25.4881 34.06V37.848C25.4881 38.4952 24.9634 39.0198 24.3162 39.0198H16.7402C16.093 39.0198 15.5684 38.4952 15.5684 37.848V34.06Z" fill="#012463"/>
<path fill-rule="evenodd" clip-rule="evenodd" d="M54.5122 34.06C54.5122 31.3206 56.7327 29.1001 59.4721 29.1001C62.2114 29.1001 64.4319 31.3206 64.4319 34.06V37.848C64.4319 38.4952 63.9073 39.0198 63.2601 39.0198H55.684C55.0369 39.0198 54.5122 38.4952 54.5122 37.848V34.06ZM59.4721 31.4438C58.0271 31.4438 56.8559 32.615 56.8559 34.06V36.6761H62.0882V34.06C62.0882 32.615 60.917 31.4438 59.4721 31.4438Z" fill="#012463"/>
<path fill-rule="evenodd" clip-rule="evenodd" d="M29.8989 73.0605C30.5461 73.0605 31.0707 73.5852 31.0707 74.2324V78.826C31.0707 79.4732 30.5461 79.9979 29.8989 79.9979C29.2517 79.9979 28.7271 79.4732 28.7271 78.826V74.2324C28.7271 73.5852 29.2517 73.0605 29.8989 73.0605Z" fill="#012463"/>
<path fill-rule="evenodd" clip-rule="evenodd" d="M16.7397 36.6755C17.3869 36.6755 17.9116 37.2002 17.9116 37.8474V50.7689C17.9116 51.9985 18.496 53.1567 19.4846 53.8873L29.953 61.6265C29.9534 61.6268 29.9537 61.6271 29.9541 61.6274C30.6571 62.1456 31.0706 62.966 31.0706 63.8388V68.7481C31.0706 69.3953 30.5459 69.9199 29.8987 69.9199C29.2515 69.9199 28.7269 69.3953 28.7269 68.7481V63.8388C28.7269 63.709 28.6658 63.5893 28.5632 63.5137L28.5615 63.5124L18.0916 55.7721C18.0915 55.7721 18.0915 55.772 18.0915 55.772C16.5052 54.5996 15.5679 52.7422 15.5679 50.7689V37.8474C15.5679 37.2002 16.0925 36.6755 16.7397 36.6755Z" fill="#012463"/>
<path fill-rule="evenodd" clip-rule="evenodd" d="M24.3159 36.676C24.9631 36.676 25.4877 37.2007 25.4877 37.8479V48.5339L31.775 50.8222H48.2247L54.5119 48.5339V37.8479C54.5119 37.2007 55.0366 36.676 55.6838 36.676C56.3309 36.676 56.8556 37.2007 56.8556 37.8479V49.3544C56.8556 49.8471 56.5475 50.2871 56.0845 50.4556L48.8321 53.0952C48.7036 53.142 48.568 53.1659 48.4313 53.1659H31.5683C31.4316 53.1659 31.296 53.142 31.1676 53.0952L23.9151 50.4556C23.4522 50.2871 23.144 49.8471 23.144 49.3544V37.8479C23.144 37.2007 23.6687 36.676 24.3159 36.676Z" fill="#012463"/>
<path fill-rule="evenodd" clip-rule="evenodd" d="M63.2602 36.6755C63.9074 36.6755 64.4321 37.2002 64.4321 37.8474V42.1894C64.4321 42.8366 63.9074 43.3613 63.2602 43.3613C62.613 43.3613 62.0884 42.8366 62.0884 42.1894V37.8474C62.0884 37.2002 62.613 36.6755 63.2602 36.6755Z" fill="#012463"/>
<path fill-rule="evenodd" clip-rule="evenodd" d="M63.2605 46.502C63.9077 46.502 64.4324 47.0266 64.4324 47.6738V50.769C64.4324 52.7424 63.495 54.5997 61.9088 55.7721C61.9087 55.7722 61.9087 55.7722 61.9087 55.7722L51.437 63.5138C51.3344 63.5894 51.2734 63.7091 51.2734 63.839V78.826C51.2734 79.4732 50.7487 79.9979 50.1015 79.9979C49.4543 79.9979 48.9297 79.4732 48.9297 78.826V63.839C48.9297 62.9661 49.3432 62.1456 50.0462 61.6274C50.0466 61.6272 50.0469 61.6269 50.0473 61.6267L60.5155 53.8876L60.5157 53.8875C61.5043 53.1568 62.0887 51.9987 62.0887 50.769V47.6738C62.0887 47.0266 62.6133 46.502 63.2605 46.502Z" fill="#012463"/>
<path fill-rule="evenodd" clip-rule="evenodd" d="M39.9998 38.0141C36.4629 38.0141 33.5956 40.8814 33.5956 44.4183C33.5956 47.9552 36.4629 50.8225 39.9998 50.8225C43.5368 50.8225 46.404 47.9552 46.404 44.4183C46.404 40.8814 43.5368 38.0141 39.9998 38.0141ZM31.252 44.4183C31.252 39.587 35.1685 35.6704 39.9998 35.6704C44.8312 35.6704 48.7477 39.587 48.7477 44.4183C48.7477 49.2496 44.8312 53.1662 39.9998 53.1662C35.1685 53.1662 31.252 49.2496 31.252 44.4183Z" fill="#012463"/>
<path fill-rule="evenodd" clip-rule="evenodd" d="M40.3645 2.57028C40.2154 2.26825 39.7844 2.268 39.6351 2.57046L37.0892 7.72904L37.0891 7.72926C36.6885 8.54053 35.9144 9.10332 35.0185 9.2335C35.0184 9.2335 35.0184 9.2335 35.0184 9.2335L29.3255 10.0608L29.157 8.90116L29.3255 10.0608C28.9922 10.1092 28.859 10.5189 29.1003 10.7542L33.2197 14.7695C33.2197 14.7695 33.2198 14.7696 33.2198 14.7696C33.8682 15.4015 34.1637 16.312 34.0107 17.2039L34.0107 17.2039L33.0383 22.8738C32.9813 23.206 33.3299 23.4591 33.6281 23.3024L38.72 20.6255C38.7201 20.6255 38.7201 20.6255 38.7201 20.6254C39.5213 20.2042 40.4784 20.2043 41.2795 20.6254L41.2796 20.6254L46.3716 23.3024C46.6698 23.4591 47.0184 23.206 46.9615 22.8739C46.9615 22.8738 46.9614 22.8738 46.9614 22.8738L45.989 17.2039L45.989 17.2039C45.836 16.3117 46.1317 15.4015 46.7799 14.7697L46.7799 14.7696L50.8995 10.7541L50.8995 10.7541C51.1408 10.5189 51.0077 10.1093 50.6743 10.0608L50.6742 10.0608L44.9813 9.2335C44.9813 9.2335 44.9813 9.2335 44.9813 9.2335C44.0856 9.10335 43.3111 8.5407 42.9106 7.72904M42.9105 7.72898L40.3646 2.57034C40.3646 2.57032 40.3645 2.5703 40.3645 2.57028M37.5336 1.53287C38.5427 -0.510838 41.4572 -0.51111 42.4662 1.53298L42.4662 1.53304L45.0122 6.6918L45.0123 6.69187C45.0714 6.8117 45.1859 6.89494 45.3183 6.91417L45.3183 6.91418L51.0113 7.74149C51.0113 7.7415 51.0113 7.7415 51.0113 7.7415C53.2671 8.0693 54.1678 10.8414 52.5353 12.4325L48.4158 16.4479C48.32 16.5413 48.2763 16.6758 48.2989 16.8077L49.2714 22.4777L49.2714 22.4777C49.6566 24.7242 47.2987 26.4376 45.2811 25.3769L40.1891 22.6999C40.0705 22.6376 39.929 22.6377 39.8108 22.6999L39.8107 22.6999L34.7187 25.3769C32.701 26.4376 30.3431 24.7242 30.7283 22.4777L30.7283 22.4777L31.7008 16.8077C31.7008 16.8077 31.7008 16.8077 31.7008 16.8077C31.7234 16.6756 31.6796 16.5412 31.5841 16.4481L31.5839 16.4479L27.4644 12.4324L27.4643 12.4324C25.8322 10.8414 26.7327 8.06931 28.9884 7.7415L34.6814 6.91418L34.6814 6.91417C34.8136 6.89497 34.9282 6.81184 34.9876 6.69158L37.5335 1.53304L37.5336 1.53287Z" fill="#012463"/>
<path fill-rule="evenodd" clip-rule="evenodd" d="M66.8611 7.38726C67.9621 5.95555 70.1208 5.95555 71.2218 7.38726L75.9092 13.4845C77.2997 15.2932 76.0102 17.9108 73.7288 17.9108H73.3699V26.7408C73.3699 28.2596 72.1386 29.491 70.6197 29.491H67.4631C65.9442 29.491 64.7128 28.2596 64.7128 26.7408V17.9108H64.3539C62.0725 17.9108 60.7831 15.2932 62.1735 13.4845L66.8611 7.38726ZM68.719 8.81592C68.8818 8.60437 69.201 8.60427 69.3638 8.81581C69.3638 8.81577 69.3638 8.81585 69.3638 8.81581L74.0512 14.913C74.2566 15.1802 74.0661 15.5672 73.7288 15.5672H72.1981C71.5509 15.5672 71.0262 16.0918 71.0262 16.739V26.7408C71.0262 26.9653 70.8442 27.1473 70.6197 27.1473H67.4631C67.2385 27.1473 67.0565 26.9653 67.0565 26.7408V16.739C67.0565 16.0918 66.5318 15.5672 65.8847 15.5672H64.3539C64.0166 15.5672 63.8262 15.1802 64.0316 14.913C64.0316 14.913 64.0316 14.913 64.0316 14.913L68.719 8.81592Z" fill="#012463"/>
<path fill-rule="evenodd" clip-rule="evenodd" d="M11.2808 8.81502C11.1192 8.60464 10.7999 8.60277 10.6356 8.81613L5.94894 14.9119C5.9489 14.912 5.94887 14.912 5.94883 14.9121C5.9488 14.9121 5.94886 14.912 5.94883 14.9121C5.74317 15.1801 5.93363 15.5666 6.27127 15.5666H7.80248C8.44967 15.5666 8.97432 16.0913 8.97432 16.7385V26.7413C8.97432 26.966 9.1559 27.1476 9.38056 27.1476H12.5367C12.7614 27.1476 12.943 26.966 12.943 26.7413V24.9461C12.943 24.2989 13.4676 23.7742 14.1148 23.7742C14.762 23.7742 15.2866 24.2989 15.2866 24.9461V26.7413C15.2866 28.2604 14.0558 29.4912 12.5367 29.4912H9.38056C7.86152 29.4912 6.63064 28.2604 6.63064 26.7413V17.9103H6.27127C3.99034 17.9103 2.69968 15.294 4.09055 13.4839L8.77861 7.38631C9.8798 5.95612 12.0382 5.95409 13.1392 7.38696C13.1393 7.38712 13.1394 7.38727 13.1395 7.38742L17.8265 13.4837L17.8267 13.4839C19.2176 15.294 17.9269 17.9103 15.646 17.9103H15.2866V19.4618C15.2866 20.109 14.762 20.6337 14.1148 20.6337C13.4676 20.6337 12.943 20.109 12.943 19.4618V16.7385C12.943 16.0913 13.4676 15.5666 14.1148 15.5666H15.646C15.9836 15.5666 16.1742 15.1802 15.9685 14.9122M11.2808 8.81502L15.9683 14.9119Z" fill="#012463"/>
<path fill-rule="evenodd" clip-rule="evenodd" d="M74.3465 35.6574L74.7511 36.4773C75.0062 36.9937 75.4989 37.352 76.0695 37.4351L76.9742 37.5665L76.3199 38.2043C75.9072 38.6066 75.7185 39.1864 75.8161 39.7549C75.8161 39.755 75.8162 39.7552 75.8162 39.7553L75.9706 40.6557L75.1614 40.2303C74.6512 39.9622 74.0417 39.9622 73.5316 40.2303L72.7223 40.6557L72.8769 39.7544C72.9741 39.1865 72.7859 38.6072 72.3736 38.2049L71.7187 37.5665L72.6235 37.4351C73.1934 37.3521 73.6868 36.9942 73.942 36.4769C73.9421 36.4768 73.9421 36.4767 73.9422 36.4766L74.3465 35.6574ZM70.8596 36.7292C70.8596 36.7291 70.8596 36.7292 70.8596 36.7292ZM75.9173 33.5445C75.2746 32.2423 73.4184 32.2431 72.7758 33.5443L71.9781 35.1605L70.1947 35.4197C70.1948 35.4196 70.1947 35.4197 70.1947 35.4197C68.7581 35.6283 68.1839 37.394 69.2238 38.4075C69.2238 38.4075 69.2238 38.4075 69.2238 38.4075L70.5143 39.6653L70.2095 41.4417C70.2095 41.4417 70.2095 41.4417 70.2095 41.4417C69.964 42.8729 71.4663 43.9635 72.751 43.2884L74.3465 42.4497L75.9418 43.2883C77.2263 43.9634 78.7289 42.8733 78.4834 41.4417L78.1787 39.6653L79.4691 38.4075L79.4693 38.4074C80.5083 37.3943 79.9355 35.6284 78.4983 35.4197C78.4983 35.4197 78.4982 35.4197 78.4983 35.4197L76.7148 35.1605L75.9173 33.5445C75.9173 33.5446 75.9173 33.5445 75.9173 33.5445ZM78.126 39.3582C78.126 39.3583 78.126 39.3585 78.126 39.3586Z" fill="#012463"/>
<path fill-rule="evenodd" clip-rule="evenodd" d="M4.08268 33.5445C4.72533 32.2423 6.5816 32.2431 7.22419 33.5443L8.02185 35.1605L9.80521 35.4197C9.80525 35.4197 9.80517 35.4196 9.80521 35.4197C11.2418 35.6283 11.8161 37.394 10.7762 38.4075C10.7761 38.4075 10.7762 38.4075 10.7762 38.4075L9.4857 39.6653L9.79041 41.4417C9.79041 41.4417 9.79041 41.4417 9.79041 41.4417C10.0359 42.8729 8.53368 43.9635 7.24892 43.2884L5.6535 42.4497L4.0582 43.2883C2.77361 43.9634 1.27105 42.8733 1.51657 41.4417L1.82129 39.6653L0.530699 38.4074C-0.50837 37.3943 0.0644737 35.6284 1.50167 35.4197C1.50171 35.4197 1.50163 35.4197 1.50167 35.4197L3.28514 35.1605L4.08268 33.5445C4.08268 33.5445 4.08267 33.5446 4.08268 33.5445ZM8.15943 35.4393C8.15949 35.4394 8.15954 35.4395 8.1596 35.4396ZM5.6535 35.6574L6.05778 36.4766C6.05783 36.4767 6.05788 36.4768 6.05793 36.4769C6.31319 36.9942 6.80659 37.3521 7.37651 37.4351L8.28124 37.5665L7.62634 38.2049C7.21411 38.6072 7.02588 39.1864 7.12305 39.7544L7.12314 39.7549L7.27767 40.6557L6.4684 40.2303C5.95824 39.9622 5.34875 39.9622 4.83859 40.2303L4.02932 40.6557L4.18378 39.7553C4.1838 39.7552 4.18383 39.755 4.18385 39.7549C4.28145 39.1864 4.09286 38.6067 3.68017 38.2044L3.02575 37.5665L3.93048 37.4351C4.50107 37.352 4.99373 36.9937 5.24883 36.4773L5.6535 35.6574ZM9.46843 37.739C9.46847 37.739 9.46839 37.739 9.46843 37.739Z" fill="#012463"/>
<path fill-rule="evenodd" clip-rule="evenodd" d="M55.684 19.2629C56.3312 19.2629 56.8559 19.7876 56.8559 20.4348V25.4854C56.8559 26.1326 56.3312 26.6573 55.684 26.6573C55.0369 26.6573 54.5122 26.1326 54.5122 25.4854V20.4348C54.5122 19.7876 55.0369 19.2629 55.684 19.2629Z" fill="#012463"/>
<path fill-rule="evenodd" clip-rule="evenodd" d="M52.4604 22.9599C52.4604 22.3127 52.9851 21.7881 53.6323 21.7881H57.7359C58.3831 21.7881 58.9078 22.3127 58.9078 22.9599C58.9078 23.6071 58.3831 24.1318 57.7359 24.1318H53.6323C52.9851 24.1318 52.4604 23.6071 52.4604 22.9599Z" fill="#012463"/>
<path fill-rule="evenodd" clip-rule="evenodd" d="M24.3159 19.2629C24.9631 19.2629 25.4877 19.7876 25.4877 20.4348V25.4854C25.4877 26.1326 24.9631 26.6573 24.3159 26.6573C23.6687 26.6573 23.144 26.1326 23.144 25.4854V20.4348C23.144 19.7876 23.6687 19.2629 24.3159 19.2629Z" fill="#012463"/>
<path fill-rule="evenodd" clip-rule="evenodd" d="M21.0923 22.9599C21.0923 22.3127 21.6169 21.7881 22.2641 21.7881H26.3678C27.015 21.7881 27.5396 22.3127 27.5396 22.9599C27.5396 23.6071 27.015 24.1318 26.3678 24.1318H22.2641C21.6169 24.1318 21.0923 23.6071 21.0923 22.9599Z" fill="#012463"/>
</svg>
