<svg width="80" height="81" viewBox="0 0 80 81" fill="none" xmlns="http://www.w3.org/2000/svg">
<path d="M78.2354 21.6438H0.902832L4.90279 28.3104L0.902832 34.977H78.2354L74.2355 28.3104L78.2354 21.6438Z" fill="#004CD1"/>
<path d="M51.4584 33.1917L51.4224 34.977H58.0903L58.1036 34.333L60.9716 30.2157C61.7689 29.0717 61.7689 27.5504 60.9716 26.4051L58.1023 22.2878L58.0903 21.6438H51.4224L51.457 23.4304C51.4704 24.0891 51.6784 24.7291 52.0544 25.2704L54.173 28.3104L52.0557 31.3517C51.6784 31.893 51.4704 32.533 51.4584 33.1917Z" fill="#012463"/>
<path d="M27.6801 33.1904C27.6668 32.5317 27.4588 31.8917 27.0828 31.3504L24.9654 28.3104L27.0828 25.2691C27.4601 24.7291 27.6668 24.0891 27.6801 23.4304L27.7161 21.6438H21.0481L21.0348 22.2878L18.1668 26.4051C17.3695 27.5491 17.3695 29.0704 18.1668 30.2157L21.0348 34.3317L21.0481 34.977H27.7161L27.6801 33.1904Z" fill="#012463"/>
<path d="M58.2358 28.3104L54.7905 33.257L54.6705 39.2836L48.9732 41.2569L45.3386 46.0675L39.5693 44.3102L33.8 46.0675L30.1654 41.2556L24.4668 39.2836L24.3481 33.257L20.9028 28.3104L24.3481 23.3638L24.4681 17.3372L30.1654 15.3638L33.8 10.5532L39.5693 12.3105L45.3386 10.5532L48.9732 15.3652L54.6718 17.3372L54.7905 23.3638L58.2358 28.3104Z" fill="#004CD1"/>
<path d="M39.5694 38.9769C45.4604 38.9769 50.236 34.2013 50.236 28.3104C50.236 22.4194 45.4604 17.6438 39.5694 17.6438C33.6784 17.6438 28.9028 22.4194 28.9028 28.3104C28.9028 34.2013 33.6784 38.9769 39.5694 38.9769Z" fill="#FFA648"/>
<path d="M29.4588 64.7101C29.4574 64.7074 24.6268 57.8835 24.6268 57.8835C24.1588 57.2221 23.3988 56.8288 22.5882 56.8288C20.7322 56.8288 19.5242 58.7821 20.3549 60.4434L22.2362 64.3101L16.6349 62.4408L12.9029 54.9768L11.9563 51.1889C11.7283 50.2809 10.9136 49.6436 9.97762 49.6436C8.71764 49.6436 7.75898 50.7755 7.96564 52.0182L8.84297 57.2848L5.33367 53.1902C4.50434 52.2235 3.08436 52.0275 2.02437 52.7342C0.848379 53.5182 0.548382 55.1155 1.35771 56.2728L9.0283 67.2314C9.15097 67.4074 9.29496 67.5674 9.4563 67.7087C11.2163 69.2487 12.9776 70.79 14.7376 72.33C16.6256 73.982 20.0509 75.934 19.8482 78.7526C19.7802 79.7179 19.6735 79.3473 19.5695 80.3099H31.5694C31.2814 74.666 33.0027 69.698 29.4588 64.7101Z" fill="#004CD1"/>
<path d="M77.2838 52.7329C76.2238 52.0262 74.8038 52.2222 73.9745 53.1889L70.4652 57.2835L71.3425 52.0169C71.5505 50.7755 70.5919 49.6436 69.3319 49.6436C68.3959 49.6436 67.5799 50.2809 67.3532 51.1889L66.4066 54.9768L62.6746 62.4408L57.0733 64.3101L58.9546 60.4434C59.7853 58.7835 58.5773 56.8288 56.7213 56.8288C55.9107 56.8288 55.1507 57.2221 54.6827 57.8835C54.6827 57.8835 49.8534 64.7087 49.8507 64.7101C46.3068 69.698 48.0281 74.666 47.7401 80.3099H59.74C59.636 79.3473 59.5293 79.7179 59.46 78.7526C59.2573 75.934 62.6826 73.982 64.5706 72.33C66.3306 70.79 68.0919 69.2487 69.8519 67.7087C70.0132 67.5674 70.1572 67.4074 70.2799 67.2314L77.9504 56.2728C78.7611 55.1142 78.4598 53.5169 77.2838 52.7329Z" fill="#004CD1"/>
<path d="M39.9999 39.9583C46.6158 39.9583 51.9998 34.5743 51.9998 27.9584C51.9998 21.3424 46.6158 15.9585 39.9999 15.9585C33.384 15.9585 28 21.3424 28 27.9584C28 34.5743 33.3826 39.9583 39.9999 39.9583ZM39.9999 18.6251C45.1465 18.6251 49.3331 22.8118 49.3331 27.9584C49.3331 33.105 45.1465 37.2916 39.9999 37.2916C34.8533 37.2916 30.6666 33.105 30.6666 27.9584C30.6666 22.8118 34.8533 18.6251 39.9999 18.6251Z" fill="#012463"/>
<path d="M0.172289 35.2822C0.408287 35.6996 0.852283 35.9582 1.33228 35.9582H23.5041L23.5627 38.9582C23.5734 39.5169 23.9321 40.0102 24.4601 40.1915L29.7747 42.0315L33.164 46.5195C33.5013 46.9661 34.0813 47.1541 34.616 46.9915L39.9972 45.3528L45.3785 46.9915C45.5065 47.0301 45.6372 47.0488 45.7678 47.0488C46.1785 47.0488 46.5745 46.8581 46.8318 46.5195L50.2225 42.0315L55.5371 40.1915C56.0651 40.0089 56.4237 39.5169 56.4344 38.9582L56.4931 35.9582H78.6649C79.1449 35.9582 79.5889 35.6996 79.8249 35.2822C80.0622 34.8649 80.0555 34.3516 79.8075 33.9396L76.2196 27.9596L79.8075 21.9797C80.0555 21.5677 80.0609 21.0544 79.8249 20.6371C79.5889 20.2197 79.1449 19.9611 78.6649 19.9611H56.4931L56.4344 16.9611C56.4237 16.4024 56.0651 15.9091 55.5371 15.7278L50.2225 13.8878L46.8332 9.39982C46.4958 8.95316 45.9145 8.76516 45.3812 8.92783L39.9999 10.5638L34.6186 8.92516C34.084 8.76383 33.5026 8.95049 33.1666 9.39716L29.776 13.8851L24.4614 15.7251C23.9334 15.9078 23.5747 16.3998 23.5641 16.9584L23.5054 19.9584H1.33361C0.853616 19.9584 0.40962 20.2171 0.173623 20.6344C-0.0637083 21.0517 -0.0570417 21.565 0.190956 21.977L3.77892 27.957L0.190956 33.9369C-0.0570417 34.3502 -0.0637085 34.8636 0.172289 35.2822ZM76.3102 22.625L73.5223 27.2717C73.2689 27.6943 73.2689 28.221 73.5223 28.6436L76.3102 33.2903H56.5757L59.7597 28.7183C60.0784 28.261 60.0784 27.653 59.7597 27.1943L56.5757 22.6237L76.3102 22.625ZM25.872 23.773C26.0227 23.557 26.1054 23.301 26.1107 23.037L26.2107 17.9397L31.0307 16.2718C31.2813 16.1851 31.4987 16.0264 31.6587 15.8158L34.732 11.7478L39.6106 13.2345C39.8639 13.3118 40.1346 13.3118 40.3879 13.2345L45.2665 11.7491L48.3398 15.8171C48.4998 16.0278 48.7172 16.1864 48.9678 16.2731L53.7878 17.9411L53.8878 23.0384C53.8931 23.3024 53.9758 23.5584 54.1278 23.7744L57.0424 27.9583L54.1278 32.1436C53.9771 32.3596 53.8944 32.6156 53.8891 32.8796L53.7891 37.9769L48.9678 39.6435C48.7172 39.7302 48.4998 39.8889 48.3398 40.0995L45.2665 44.1675L40.3879 42.6808C40.2612 42.6422 40.1306 42.6235 39.9986 42.6235C39.8666 42.6235 39.7372 42.6435 39.6092 42.6808L34.7306 44.1662L31.6573 40.0982C31.4973 39.8875 31.28 39.7289 31.0293 39.6422L26.2094 37.9742L26.1094 32.8769C26.104 32.6129 26.0214 32.3569 25.8694 32.1409L22.9547 27.957L25.872 23.773ZM6.47623 28.6436C6.72956 28.221 6.72956 27.6943 6.47623 27.2717L3.68826 22.625H23.4227L20.2388 27.197C19.9201 27.6543 19.9201 28.2623 20.2388 28.721L23.4227 33.2916H3.68826L6.47623 28.6436Z" fill="#012463"/>
<path d="M38.6667 33.2918C38.6867 33.2918 38.7067 33.2918 38.7267 33.2905C39.1014 33.2731 39.4507 33.0998 39.6907 32.8118L46.3573 24.8119L44.3094 23.1052L38.5774 29.9838L35.6094 27.0159L33.7241 28.9012L37.7241 32.9011C37.9747 33.1518 38.3134 33.2918 38.6667 33.2918Z" fill="#012463"/>
<path d="M46.6293 77.998C46.6587 78.6886 46.6867 79.3566 46.7053 79.9953L49.3707 79.9206C49.3533 79.2713 49.324 78.5886 49.2933 77.886C49.1107 73.5673 48.8813 68.1941 51.1973 64.9354C51.2106 64.9181 51.2106 64.9181 56.0519 58.0782C56.2693 57.7702 56.6253 57.5862 57.0012 57.5862C57.5866 57.5862 57.8892 57.9728 57.9919 58.1382C58.0946 58.3048 58.3052 58.7475 58.0812 59.1995L55.2253 64.1394C54.8733 64.7474 54.6879 65.4394 54.6879 66.1421H57.3546C57.3546 65.9074 57.4159 65.6768 57.5332 65.4754L57.8159 64.9861L63.8372 62.9768L63.8798 62.9981L63.9012 62.9555L67.5358 61.7421C68.1665 61.5061 68.7305 61.1101 69.1678 60.6008L75.2691 53.4822C75.4877 53.2275 75.8051 53.0769 76.1397 53.0689C76.5011 53.0675 76.8037 53.1982 77.0477 53.4569C77.4171 53.8462 77.4277 54.5209 77.0744 55.0275L69.6558 65.6261C69.4691 65.8914 69.2531 66.1328 69.0118 66.3448L63.9732 70.754C62.2159 72.2927 58.1546 76.2567 58.4106 79.834L61.0705 79.642C60.9305 77.6953 63.4918 74.718 65.7292 72.7607L70.7678 68.3514C71.1691 67.9994 71.5291 67.5994 71.8398 67.1567L79.2584 56.5568C80.3424 55.0089 80.2277 52.9342 78.9837 51.6236C78.225 50.8222 77.1704 50.3982 76.0744 50.4036C74.9851 50.4316 73.9531 50.9209 73.2438 51.7476L72.8478 52.2089L72.9384 51.6636C73.1024 50.6836 72.8278 49.6876 72.1851 48.9289C71.5424 48.1716 70.6051 47.7356 69.6118 47.7356C68.0611 47.7356 66.7158 48.7863 66.3385 50.2902L65.4278 53.9369L62.0079 60.7768L59.8252 61.5048L60.4252 60.4648C61.0239 59.2688 60.9612 57.8755 60.2585 56.7382C59.5559 55.6009 58.3372 54.9209 56.9999 54.9209C55.7586 54.9209 54.5893 55.5262 53.8733 56.5382L49.0427 63.3634C46.1787 67.3941 46.4293 73.274 46.6293 77.998ZM67.8811 54.9969C67.9251 54.9102 67.9585 54.8182 67.9825 54.7235L68.9291 50.9356C69.0078 50.6209 69.2905 50.4009 69.6145 50.4009C69.8985 50.4009 70.0745 50.5569 70.1531 50.6516C70.2331 50.7449 70.3585 50.9436 70.3118 51.2236L69.4958 56.1235L67.1451 58.8648C66.9998 59.0355 66.8105 59.1675 66.6465 59.2288L65.5892 59.5808L67.8811 54.9969Z" fill="#012463"/>
<path d="M23.0404 57.5861C23.4177 57.5861 23.7737 57.7701 23.991 58.0781C23.991 58.0781 28.735 64.7807 28.8243 64.9074C31.1603 68.1954 30.9323 73.57 30.7483 77.8873C30.719 78.5899 30.6896 79.2713 30.6723 79.9206L33.3376 79.9953C33.3549 79.3579 33.3843 78.6899 33.4136 78.0006C33.6136 73.2753 33.8629 67.3954 30.9976 63.3621L30.9936 63.3648C30.735 62.9874 29.8003 61.6688 26.1683 56.5355C25.451 55.5222 24.2817 54.9182 23.0404 54.9182C21.703 54.9182 20.4844 55.5968 19.7817 56.7342C19.0791 57.8728 19.0164 59.2648 19.6524 60.5328L20.2124 61.5008L18.0337 60.7741L14.6138 53.9342L13.7018 50.2876C13.3245 48.7836 11.9791 47.7329 10.4298 47.7329C9.43516 47.7329 8.49784 48.1676 7.85518 48.9262C7.21385 49.6836 6.93919 50.6809 7.10319 51.6595L7.19385 52.2049L6.79786 51.7435C6.08853 50.9169 5.05654 50.4276 3.96722 50.3996C2.89256 50.3942 1.8179 50.8169 1.05791 51.6195C-0.184745 52.9315 -0.29941 55.0062 0.783246 56.5528L8.20318 67.1527C8.51117 67.5927 8.87117 67.994 9.27383 68.3474L14.3125 72.7567C16.5484 74.714 19.1111 77.69 18.9711 79.6379L21.631 79.8299C21.887 76.2526 17.8271 72.2887 16.0698 70.75L11.0311 66.3407C10.7898 66.1287 10.5738 65.8887 10.3885 65.6247L2.96856 55.0235C2.61523 54.5182 2.62589 53.8422 2.99522 53.4542C3.23789 53.1969 3.56989 53.0622 3.90188 53.0675C4.23788 53.0755 4.55521 53.2262 4.77387 53.4809L10.8751 60.5981C11.3125 61.1088 11.8765 61.5048 12.5538 61.7581L16.1418 62.9554L16.1631 62.9968L16.2044 62.9768L22.227 64.9861L22.5097 65.4767C22.5804 65.6007 22.6884 66.0541 22.6884 66.4021H25.355C25.355 65.9074 25.2417 64.8754 24.8177 64.1421L21.999 59.2715C21.7364 58.7475 21.947 58.3048 22.0497 58.1381C22.1537 57.9715 22.455 57.5861 23.0404 57.5861ZM13.4445 59.2448C13.2338 59.1648 13.0458 59.0341 12.9005 58.8635L10.5498 56.1222L9.73383 51.2222C9.68716 50.9422 9.81249 50.7449 9.89116 50.6515C9.96983 50.5582 10.1445 50.4009 10.4298 50.4009C10.7552 50.4009 11.0365 50.6209 11.1151 50.9355L12.0618 54.7248C12.0858 54.8195 12.1191 54.9102 12.1631 54.9982L14.4564 59.5835L13.4445 59.2448Z" fill="#012463"/>
<path d="M38.0652 53.2021C37.2265 53.1381 36.3799 53.0314 35.5519 52.8848L35.0879 55.5114C36.0025 55.6727 36.9359 55.7901 37.8625 55.8607L38.0652 53.2021Z" fill="#012463"/>
<path d="M43.1226 53.0862C42.2893 53.1888 41.4386 53.2502 40.5986 53.2688L40.6586 55.9355C41.588 55.9142 42.5266 55.8462 43.4493 55.7328L43.1226 53.0862Z" fill="#012463"/>
<path d="M33.0854 52.3195C32.2801 52.0915 31.4721 51.8195 30.6868 51.5088L29.7095 53.9901C30.5775 54.3328 31.4695 54.6341 32.3601 54.8861L33.0854 52.3195Z" fill="#012463"/>
<path d="M45.6157 52.6527L46.2037 55.2527C47.1104 55.0474 48.017 54.7941 48.8997 54.4967L48.0504 51.9688C47.2544 52.2381 46.4344 52.4674 45.6157 52.6527Z" fill="#012463"/>
<path d="M28.3843 50.4635C27.6363 50.0768 26.9003 49.6475 26.1964 49.1902L24.7417 51.4248C25.519 51.9315 26.3324 52.4048 27.1603 52.8315L28.3843 50.4635Z" fill="#012463"/>
<path d="M52.6612 49.8889C51.9318 50.3102 51.1732 50.6996 50.4092 51.0449L51.5065 53.4756C52.3518 53.0942 53.1892 52.6636 53.9945 52.1982L52.6612 49.8889Z" fill="#012463"/>
<path d="M24.1456 47.7049C23.4909 47.1782 22.8536 46.6115 22.2536 46.0222L20.3843 47.9249C21.0469 48.5769 21.7509 49.2022 22.4749 49.7835L24.1456 47.7049Z" fill="#012463"/>
<path d="M56.7653 46.9343C56.1346 47.4917 55.4693 48.0223 54.7866 48.5143L56.3453 50.6783C57.0986 50.1356 57.8346 49.549 58.5319 48.933L56.7653 46.9343Z" fill="#012463"/>
<path d="M16.8057 43.6316C17.3257 44.4009 17.8923 45.1529 18.4883 45.8676L20.5363 44.1596C19.9976 43.513 19.4856 42.833 19.0136 42.137L16.8057 43.6316Z" fill="#012463"/>
<path d="M58.5786 45.1663L60.5346 46.9796C61.1679 46.2956 61.7732 45.5756 62.3319 44.837L60.2079 43.2263C59.7013 43.8943 59.1519 44.5463 58.5786 45.1663Z" fill="#012463"/>
<path d="M14.1484 38.7144C14.5084 39.5757 14.9138 40.4237 15.3551 41.2397L17.7004 39.9717C17.3017 39.2344 16.9337 38.4664 16.6097 37.6877L14.1484 38.7144Z" fill="#012463"/>
<path d="M65.2462 40.0649L62.8436 38.9089C62.4783 39.6689 62.0716 40.4169 61.6343 41.1329L63.9089 42.5236C64.3929 41.7329 64.8422 40.9049 65.2462 40.0649Z" fill="#012463"/>
<path d="M15.3999 16.2212L17.8199 17.3412C18.1705 16.5812 18.5679 15.8279 18.9972 15.1012L16.7012 13.7439C16.2279 14.5479 15.7892 15.3812 15.3999 16.2212Z" fill="#012463"/>
<path d="M66.5131 16.8411C66.1438 15.9905 65.7252 15.1465 65.2718 14.3345L62.9438 15.6345C63.3545 16.3705 63.7332 17.1331 64.0678 17.9038L66.5131 16.8411Z" fill="#012463"/>
<path d="M21.9932 11.0279L20.0146 9.24121C19.3906 9.93187 18.7959 10.6625 18.2466 11.4105L20.3946 12.9905C20.8906 12.3132 21.4292 11.6532 21.9932 11.0279Z" fill="#012463"/>
<path d="M63.7837 11.9611C63.253 11.2011 62.6757 10.4571 62.0704 9.75049L60.0464 11.4865C60.5957 12.1265 61.117 12.7998 61.5984 13.4878L63.7837 11.9611Z" fill="#012463"/>
<path d="M23.7816 9.23318C24.4043 8.66786 25.0629 8.12653 25.7389 7.6252L24.1496 5.48389C23.4029 6.03721 22.6763 6.63454 21.9883 7.25987L23.7816 9.23318Z" fill="#012463"/>
<path d="M56.3862 7.99462C57.0476 8.50929 57.6916 9.06661 58.3022 9.64927L60.1435 7.72129C59.4689 7.0773 58.7569 6.46264 58.0262 5.89331L56.3862 7.99462Z" fill="#012463"/>
<path d="M30.0802 5.0305L28.9469 2.61719C28.1082 3.01052 27.2762 3.45185 26.4775 3.93051L27.8455 6.21982C28.5695 5.78649 29.3215 5.38783 30.0802 5.0305Z" fill="#012463"/>
<path d="M52.1104 5.2974C52.8597 5.67073 53.6023 6.08806 54.3143 6.53739L55.737 4.28274C54.949 3.78542 54.129 3.32409 53.2983 2.90942L52.1104 5.2974Z" fill="#012463"/>
<path d="M32.4239 4.072C33.2132 3.79467 34.0305 3.55334 34.8492 3.35467L34.2225 0.762695C33.3159 0.98136 32.4132 1.24936 31.5386 1.55602L32.4239 4.072Z" fill="#012463"/>
<path d="M50.7343 1.78921C49.8623 1.45988 48.965 1.17055 48.069 0.931885L47.3823 3.50919C48.1916 3.72386 49.001 3.98519 49.789 4.28385L50.7343 1.78921Z" fill="#012463"/>
<path d="M37.3371 2.88397C38.1678 2.76931 39.0158 2.69597 39.8584 2.66531L39.7611 0C38.8305 0.0346663 37.8918 0.115999 36.9731 0.242664L37.3371 2.88397Z" fill="#012463"/>
<path d="M42.3892 2.6972C43.2345 2.75053 44.0825 2.84386 44.9078 2.97853L45.3331 0.346552C44.4225 0.198554 43.4865 0.0945548 42.5545 0.0358887L42.3892 2.6972Z" fill="#012463"/>
</svg>
