<svg width="80" height="86" viewBox="0 0 80 86" fill="none" xmlns="http://www.w3.org/2000/svg">
<path d="M79.1204 67.9565L52.7476 22.2729C52.3624 21.6002 51.728 21.106 50.9815 20.897C50.235 20.6879 49.4363 20.7809 48.7577 21.1557L28.3697 32.8859C27.7038 33.2777 27.218 33.9149 27.0166 34.6609C26.8152 35.4068 26.9143 36.2019 27.2924 36.8757L53.6652 82.6391C54.1798 83.5385 54.9235 84.2855 55.8205 84.8041C56.7176 85.3227 57.736 85.5944 58.7722 85.5915H59.1712C60.2717 85.5254 61.3321 85.1546 62.234 84.5205C63.1359 83.8863 63.8436 83.0139 64.2782 82.0007L66.7918 75.976L73.3351 76.774C74.4455 76.9269 75.5765 76.7648 76.5994 76.3063C77.6222 75.8478 78.4957 75.1113 79.1204 74.1806C79.6955 73.2445 80 72.1673 80 71.0686C80 69.9698 79.6955 68.8926 79.1204 67.9565Z" fill="#004CD1"/>
<path d="M53.0667 34.7611C52.9689 34.3771 52.795 34.0167 52.555 33.7014C52.3151 33.3861 52.0142 33.1223 51.6702 32.9257L31.2423 21.1557C30.5616 20.7912 29.7663 20.7039 29.0227 20.9121C28.2792 21.1203 27.6449 21.6079 27.2524 22.2729L0.879649 67.9565C0.304484 68.8926 0 69.9698 0 71.0685C0 72.1672 0.304484 73.2445 0.879649 74.1806C1.48985 75.0988 2.34181 75.8305 3.34154 76.2952C4.34128 76.7599 5.44993 76.9394 6.54521 76.8139L13.0087 75.976L15.6021 82.0406C16.0367 83.0538 16.7445 83.9262 17.6463 84.5603C18.5482 85.1945 19.6086 85.5653 20.7091 85.6314H21.2677C22.307 85.6262 23.3265 85.3467 24.2232 84.8213C25.1199 84.2959 25.8621 83.5431 26.3747 82.639L52.7475 36.9156C53.1285 36.2657 53.2429 35.4935 53.0667 34.7611Z" fill="#004CD1"/>
<path d="M72.3376 28.0181L68.7867 24.4672C68.4169 24.0944 68.1243 23.6522 67.9258 23.1661C67.7272 22.68 67.6266 22.1595 67.6296 21.6344V17.6446C67.6296 14.9849 66.5758 12.4335 64.6989 10.5491C62.8219 8.66469 60.2748 7.60074 57.6151 7.59018H53.6253C53.1002 7.59322 52.5797 7.49257 52.0936 7.29402C51.6075 7.09547 51.1653 6.80291 50.7925 6.43313L47.2017 2.84228C45.2874 1.01777 42.7443 0 40.0998 0C37.4553 0 34.9122 1.01777 32.9979 2.84228L29.4868 6.35333C29.114 6.72312 28.6719 7.01567 28.1858 7.21423C27.6996 7.41278 27.1791 7.51342 26.654 7.51039H22.6642C21.3305 7.48391 20.0049 7.72309 18.7645 8.21401C17.5242 8.70492 16.3939 9.43775 15.4396 10.3698C14.4852 11.3018 13.7259 12.4145 13.2059 13.6429C12.6858 14.8713 12.4154 16.1909 12.4103 17.5249V21.5147C12.4347 22.0569 12.3483 22.5985 12.1562 23.1061C11.9641 23.6138 11.6704 24.0769 11.2932 24.4672L7.74223 28.0181C6.81477 28.9448 6.07992 30.0459 5.58004 31.258C5.08015 32.47 4.82512 33.769 4.82965 35.0801C4.82743 37.7386 5.87405 40.2906 7.74223 42.182L11.2932 45.6931C11.6678 46.0706 11.9631 46.5192 12.1618 47.0126C12.3605 47.5059 12.4586 48.034 12.4502 48.5658V52.5556C12.4397 53.876 12.6894 55.1855 13.185 56.4094C13.6805 57.6332 14.4123 58.7475 15.3386 59.6886C16.2648 60.6296 17.3673 61.379 18.5832 61.894C19.7991 62.4089 21.1044 62.6793 22.4248 62.6898H26.4146C26.9425 62.692 27.4647 62.7989 27.951 63.0043C28.4372 63.2098 28.8779 63.5097 29.2474 63.8867L32.7585 67.3978C34.6536 69.2594 37.2039 70.3025 39.8604 70.3025C42.5169 70.3025 45.0672 69.2594 46.9623 67.3978L50.4733 63.8867C50.8428 63.5097 51.2835 63.2098 51.7698 63.0043C52.256 62.7989 52.7782 62.692 53.3061 62.6898H57.2959C59.9487 62.6793 62.4898 61.6208 64.3656 59.745C66.2415 57.8692 67.2999 55.3281 67.3104 52.6753V48.6855C67.3021 48.1537 67.4002 47.6256 67.5989 47.1323C67.7976 46.6389 68.0929 46.1903 68.4675 45.8128L72.0184 42.3017C72.9782 41.3854 73.7479 40.2888 74.2835 39.0747C74.8191 37.8606 75.11 36.5528 75.1397 35.2261C75.1693 33.8994 74.9371 32.58 74.4563 31.3431C73.9755 30.1063 73.2555 28.9764 72.3376 28.0181Z" fill="#012463"/>
<path d="M37.3866 44.4163C36.5828 44.4092 35.8121 44.0952 35.2321 43.5385L28.609 36.8755C28.0486 36.3144 27.7339 35.5539 27.7339 34.7609C27.7339 33.9679 28.0486 33.2074 28.609 32.6463C29.1818 32.0929 29.9471 31.7836 30.7436 31.7836C31.54 31.7836 32.3053 32.0929 32.8781 32.6463L37.3866 37.1947L48.5582 25.9833C49.131 25.4299 49.8963 25.1206 50.6927 25.1206C51.4892 25.1206 52.2545 25.4299 52.8273 25.9833C53.3877 26.5443 53.7024 27.3049 53.7024 28.0979C53.7024 28.8909 53.3877 29.6514 52.8273 30.2125L39.5013 43.5385C38.9358 44.0927 38.1783 44.4071 37.3866 44.4163Z" fill="#FFA648"/>
</svg>
