<svg width="20" height="20" viewBox="0 0 20 20" fill="none" xmlns="http://www.w3.org/2000/svg">
<path d="M9.79922 19.4C15.1012 19.4 19.3992 15.1019 19.3992 9.79995C19.3992 4.49802 15.1012 0.199951 9.79922 0.199951C4.49729 0.199951 0.199219 4.49802 0.199219 9.79995C0.199219 15.1019 4.49729 19.4 9.79922 19.4Z" fill="url(#paint0_linear_40_11)"/>
<path d="M13.3742 12.7356L13.8007 10.026H11.133V8.26848C11.133 7.52702 11.505 6.80386 12.6998 6.80386H13.9134V4.49704C13.9134 4.49704 12.8125 4.31396 11.7604 4.31396C9.56239 4.31396 8.12712 5.61198 8.12712 7.96087V10.026H5.68481V12.7356H8.12712V19.2862C8.61741 19.3613 9.11901 19.3997 9.63 19.3997C10.141 19.3997 10.6427 19.3613 11.133 19.2862V12.7356H13.3742Z" fill="white"/>
<defs>
<linearGradient id="paint0_linear_40_11" x1="9.79922" y1="0.199951" x2="9.79922" y2="19.343" gradientUnits="userSpaceOnUse">
<stop stop-color="#18ACFE"/>
<stop offset="1" stop-color="#0163E0"/>
</linearGradient>
</defs>
</svg>
