<svg width="20" height="20" viewBox="0 0 20 20" fill="none" xmlns="http://www.w3.org/2000/svg">
<path d="M19.2039 10.2118C19.2039 9.42232 19.1385 8.84621 18.997 8.24878H9.7981V11.8121H15.1977C15.0889 12.6976 14.501 14.0312 13.1946 14.9273L13.1763 15.0466L16.0848 17.2547L16.2863 17.2744C18.137 15.5995 19.2039 13.135 19.2039 10.2118Z" fill="#4285F4"/>
<path d="M9.79679 19.6C12.4421 19.6 14.6629 18.7465 16.285 17.2743L13.1933 14.927C12.3659 15.4925 11.2555 15.8872 9.79679 15.8872C7.2059 15.8872 5.00686 14.2123 4.22297 11.8972L4.10807 11.9067L1.08374 14.2005L1.04419 14.3083C2.65535 17.4449 5.9648 19.6 9.79679 19.6Z" fill="#34A853"/>
<path d="M4.22385 11.8975C4.01702 11.3001 3.89731 10.6599 3.89731 9.99848C3.89731 9.33699 4.01702 8.6969 4.21297 8.09946L4.20749 7.97217L1.14525 5.6416L1.04507 5.68831C0.381031 6.98991 0 8.4515 0 9.99848C0 11.5454 0.381031 13.007 1.04507 14.3086L4.22385 11.8975Z" fill="#FBBC05"/>
<path d="M9.79686 4.10914C11.6366 4.10914 12.8776 4.88794 13.5853 5.53877L16.3504 2.89294C14.6522 1.34599 12.4422 0.396484 9.79686 0.396484C5.9648 0.396484 2.65536 2.55153 1.04419 5.68807L4.21211 8.09921C5.00688 5.78413 7.2059 4.10914 9.79686 4.10914Z" fill="#EB4335"/>
</svg>
