<svg width="18" height="20" viewBox="0 0 18 20" fill="none" xmlns="http://www.w3.org/2000/svg">
<path d="M9.00004 11.4102C10.2891 11.4102 11.4805 11.0469 12.4336 10.4297C13.1719 9.95703 14.1329 10.0352 14.7813 10.625C16.5821 12.2578 17.6055 14.5742 17.6016 17.0078V18.0508C17.6016 19.1289 16.7266 20 15.6485 20H2.35161C1.27348 20 0.398482 19.1289 0.398482 18.0508V17.0078C0.390669 14.5781 1.41411 12.2578 3.21489 10.6289C3.86333 10.0391 4.82817 9.96094 5.56254 10.4336C6.51958 11.0469 7.70708 11.4102 9.00004 11.4102Z" fill="#012463"/>
<path d="M9.00004 9.67188C11.6709 9.67188 13.836 7.50675 13.836 4.83594C13.836 2.16512 11.6709 0 9.00004 0C6.32923 0 4.16411 2.16512 4.16411 4.83594C4.16411 7.50675 6.32923 9.67188 9.00004 9.67188Z" fill="#012463"/>
</svg>
