<svg width="80" height="56" viewBox="0 0 80 56" fill="none" xmlns="http://www.w3.org/2000/svg">
<path d="M75.6714 54.8372H4.32859C2.58516 54.8372 1.17188 53.4239 1.17188 51.6805V10.3269H78.8281V51.6805C78.8281 53.4238 77.4148 54.8372 75.6714 54.8372Z" fill="#D8ECFE"/>
<path d="M74.0932 10.3269V51.6805C74.0932 53.4239 72.68 54.8372 70.9365 54.8372H75.6717C77.4151 54.8372 78.8284 53.4239 78.8284 51.6805V10.3269H74.0932Z" fill="#D8ECFE"/>
<path d="M78.8281 10.3269H1.17188V4.32908C1.17188 2.58564 2.58516 1.17236 4.32859 1.17236H75.6714C77.4148 1.17236 78.8281 2.58564 78.8281 4.32908V10.3269Z" fill="#004CD1"/>
<path d="M75.6717 1.17212H70.9365C72.68 1.17212 74.0932 2.5854 74.0932 4.32884V10.3266H78.8284V4.32884C78.8284 2.58556 77.4151 1.17212 75.6717 1.17212Z" fill="#004CD1"/>
<path d="M31.1611 19.3235V16.7981C31.1611 16.1007 31.7264 15.5354 32.4238 15.5354H72.8304C73.5277 15.5354 74.093 16.1007 74.093 16.7981V19.3235C74.093 20.0209 73.5277 20.5862 72.8304 20.5862H32.4238C31.7264 20.5862 31.1611 20.0209 31.1611 19.3235Z" fill="#004CD1"/>
<path d="M72.8304 15.5354H68.0952C68.7926 15.5354 69.3579 16.1007 69.3579 16.7981V19.3235C69.3579 20.0209 68.7926 20.5862 68.0952 20.5862H72.8304C73.5277 20.5862 74.093 20.0209 74.093 19.3235V16.7981C74.093 16.1007 73.5277 15.5354 72.8304 15.5354Z" fill="#004CD1"/>
<path d="M5.90723 37.3171V17.1138C5.90723 16.2421 6.61395 15.5354 7.48566 15.5354H23.2694C24.1411 15.5354 24.8479 16.2421 24.8479 17.1138V37.3171C24.8479 38.1888 24.1411 38.8956 23.2694 38.8956H7.48566C6.61395 38.8954 5.90723 38.1888 5.90723 37.3171Z" fill="#FFA648"/>
<path d="M15.3771 29.4252C17.9051 29.4252 19.9545 27.3758 19.9545 24.8479C19.9545 22.3199 17.9051 20.2705 15.3771 20.2705C12.8492 20.2705 10.7998 22.3199 10.7998 24.8479C10.7998 27.3758 12.8492 29.4252 15.3771 29.4252Z" fill="#FFA648"/>
<path d="M24.7795 37.7756C24.2251 33.0736 20.2285 29.4253 15.3773 29.4253C10.526 29.4253 6.52947 33.0736 5.9751 37.7756C6.17166 38.4236 6.77307 38.8954 7.48525 38.8954H23.269C23.9815 38.8954 24.5831 38.4236 24.7795 37.7756Z" fill="#FFA648"/>
<path d="M24.7792 37.7756C24.2248 33.0736 20.2282 29.4253 15.377 29.4253C14.5607 29.4253 13.7696 29.5308 13.0142 29.725C17.0963 30.7779 20.1121 34.4845 20.1121 38.8956H23.2688C23.9812 38.8954 24.5828 38.4236 24.7792 37.7756Z" fill="#FFA648"/>
<path fill-rule="evenodd" clip-rule="evenodd" d="M15.3771 21.4424C13.4964 21.4424 11.9717 22.9671 11.9717 24.8479C11.9717 26.7286 13.4964 28.2533 15.3771 28.2533C17.2579 28.2533 18.7826 26.7286 18.7826 24.8479C18.7826 22.9671 17.2579 21.4424 15.3771 21.4424ZM9.62793 24.8479C9.62793 21.6726 12.2019 19.0986 15.3771 19.0986C18.5524 19.0986 21.1264 21.6726 21.1264 24.8479C21.1264 28.0231 18.5524 30.5971 15.3771 30.5971C12.2019 30.5971 9.62793 28.0231 9.62793 24.8479Z" fill="#012463"/>
<path fill-rule="evenodd" clip-rule="evenodd" d="M32.4236 16.7078C32.374 16.7078 32.333 16.7487 32.333 16.7984V19.3234C32.333 19.3731 32.374 19.414 32.4236 19.414H72.8299C72.8821 19.414 72.9221 19.3721 72.9221 19.3234V16.7984C72.9221 16.7497 72.8821 16.7078 72.8299 16.7078H66.2018C65.5546 16.7078 65.0299 16.1831 65.0299 15.5359C65.0299 14.8887 65.5546 14.364 66.2018 14.364H72.8299C74.1746 14.364 75.2658 15.4534 75.2658 16.7984V19.3234C75.2658 20.6684 74.1746 21.7578 72.8299 21.7578H32.4236C31.0795 21.7578 29.9893 20.6675 29.9893 19.3234V16.7984C29.9893 15.4543 31.0795 14.364 32.4236 14.364H60.733C61.3802 14.364 61.9049 14.8887 61.9049 15.5359C61.9049 16.1831 61.3802 16.7078 60.733 16.7078H32.4236Z" fill="#012463"/>
<path fill-rule="evenodd" clip-rule="evenodd" d="M29.9893 25.3213C29.9893 24.6741 30.5139 24.1494 31.1611 24.1494H36.2119C36.8591 24.1494 37.3838 24.6741 37.3838 25.3213C37.3838 25.9685 36.8591 26.4932 36.2119 26.4932H31.1611C30.5139 26.4932 29.9893 25.9685 29.9893 25.3213Z" fill="#012463"/>
<path fill-rule="evenodd" clip-rule="evenodd" d="M39.7754 30.3721C39.7754 29.7249 40.3001 29.2002 40.9473 29.2002H45.998C46.6453 29.2002 47.1699 29.7249 47.1699 30.3721C47.1699 31.0193 46.6453 31.5439 45.998 31.5439H40.9473C40.3001 31.5439 39.7754 31.0193 39.7754 30.3721Z" fill="#012463"/>
<path fill-rule="evenodd" clip-rule="evenodd" d="M39.7754 40.4739C39.7754 39.8267 40.3001 39.302 40.9473 39.302H45.998C46.6453 39.302 47.1699 39.8267 47.1699 40.4739C47.1699 41.1211 46.6453 41.6458 45.998 41.6458H40.9473C40.3001 41.6458 39.7754 41.1211 39.7754 40.4739Z" fill="#012463"/>
<path fill-rule="evenodd" clip-rule="evenodd" d="M49.561 30.3721C49.561 29.7249 50.0857 29.2002 50.7329 29.2002H55.7837C56.4309 29.2002 56.9556 29.7249 56.9556 30.3721C56.9556 31.0193 56.4309 31.5439 55.7837 31.5439H50.7329C50.0857 31.5439 49.561 31.0193 49.561 30.3721Z" fill="#012463"/>
<path fill-rule="evenodd" clip-rule="evenodd" d="M39.7754 25.3213C39.7754 24.6741 40.3001 24.1494 40.9473 24.1494H66.2013C66.8485 24.1494 67.3732 24.6741 67.3732 25.3213C67.3732 25.9685 66.8485 26.4932 66.2013 26.4932H40.9473C40.3001 26.4932 39.7754 25.9685 39.7754 25.3213Z" fill="#012463"/>
<path fill-rule="evenodd" clip-rule="evenodd" d="M29.9893 35.4231C29.9893 34.7759 30.5139 34.2512 31.1611 34.2512H36.2119C36.8591 34.2512 37.3838 34.7759 37.3838 35.4231C37.3838 36.0703 36.8591 36.595 36.2119 36.595H31.1611C30.5139 36.595 29.9893 36.0703 29.9893 35.4231Z" fill="#012463"/>
<path fill-rule="evenodd" clip-rule="evenodd" d="M39.7754 35.4231C39.7754 34.7759 40.3001 34.2512 40.9473 34.2512H66.2013C66.8485 34.2512 67.3732 34.7759 67.3732 35.4231C67.3732 36.0703 66.8485 36.595 66.2013 36.595H40.9473C40.3001 36.595 39.7754 36.0703 39.7754 35.4231Z" fill="#012463"/>
<path fill-rule="evenodd" clip-rule="evenodd" d="M74.0928 43.8794C74.74 43.8794 75.2646 44.4041 75.2646 45.0513V50.1021C75.2646 50.7493 74.74 51.2739 74.0928 51.2739C73.4456 51.2739 72.9209 50.7493 72.9209 50.1021V45.0513C72.9209 44.4041 73.4456 43.8794 74.0928 43.8794Z" fill="#012463"/>
<path fill-rule="evenodd" clip-rule="evenodd" d="M69.3579 43.8794C70.0051 43.8794 70.5298 44.4041 70.5298 45.0513V48.5236C70.5298 49.1708 70.0051 49.6955 69.3579 49.6955C68.7107 49.6955 68.186 49.1708 68.186 48.5236V45.0513C68.186 44.4041 68.7107 43.8794 69.3579 43.8794Z" fill="#012463"/>
<path fill-rule="evenodd" clip-rule="evenodd" d="M64.6226 43.8794C65.2698 43.8794 65.7944 44.4041 65.7944 45.0513V50.1021C65.7944 50.7493 65.2698 51.2739 64.6226 51.2739C63.9753 51.2739 63.4507 50.7493 63.4507 50.1021V45.0513C63.4507 44.4041 63.9753 43.8794 64.6226 43.8794Z" fill="#012463"/>
<path fill-rule="evenodd" clip-rule="evenodd" d="M59.8877 43.8794C60.5349 43.8794 61.0596 44.4041 61.0596 45.0513V48.5236C61.0596 49.1708 60.5349 49.6955 59.8877 49.6955C59.2405 49.6955 58.7158 49.1708 58.7158 48.5236V45.0513C58.7158 44.4041 59.2405 43.8794 59.8877 43.8794Z" fill="#012463"/>
<path fill-rule="evenodd" clip-rule="evenodd" d="M55.1523 43.8794C55.7996 43.8794 56.3242 44.4041 56.3242 45.0513V48.5236C56.3242 49.1708 55.7996 49.6955 55.1523 49.6955C54.5051 49.6955 53.9805 49.1708 53.9805 48.5236V45.0513C53.9805 44.4041 54.5051 43.8794 55.1523 43.8794Z" fill="#012463"/>
<path fill-rule="evenodd" clip-rule="evenodd" d="M50.4175 43.8794C51.0647 43.8794 51.5894 44.4041 51.5894 45.0513V50.1021C51.5894 50.7493 51.0647 51.2739 50.4175 51.2739C49.7703 51.2739 49.2456 50.7493 49.2456 50.1021V45.0513C49.2456 44.4041 49.7703 43.8794 50.4175 43.8794Z" fill="#012463"/>
<path fill-rule="evenodd" clip-rule="evenodd" d="M0 4.32969C0 1.93911 1.93835 0 4.32813 0H12.4219C13.0691 0 13.5938 0.524666 13.5938 1.17188C13.5938 1.81908 13.0691 2.34375 12.4219 2.34375H4.32813C3.23352 2.34375 2.34375 3.23277 2.34375 4.32969V51.6797C2.34375 52.7766 3.23353 53.6656 4.32813 53.6656H16.1625C16.8097 53.6656 17.3344 54.1903 17.3344 54.8375C17.3344 55.4847 16.8097 56.0094 16.1625 56.0094H4.32813C1.93835 56.0094 0 54.0703 0 51.6797V4.32969Z" fill="#012463"/>
<path fill-rule="evenodd" clip-rule="evenodd" d="M16.7188 1.17188C16.7188 0.524666 17.2434 0 17.8906 0H75.6719C78.0616 0 80 1.93911 80 4.32969V51.6797C80 54.0703 78.0616 56.0094 75.6719 56.0094H21.6313C20.984 56.0094 20.4594 55.4847 20.4594 54.8375C20.4594 54.1903 20.984 53.6656 21.6313 53.6656H75.6719C76.7665 53.6656 77.6562 52.7766 77.6562 51.6797V4.32969C77.6562 3.23277 76.7665 2.34375 75.6719 2.34375H17.8906C17.2434 2.34375 16.7188 1.81908 16.7188 1.17188Z" fill="#012463"/>
<path fill-rule="evenodd" clip-rule="evenodd" d="M0 10.3269C0 9.6797 0.524666 9.15503 1.17188 9.15503H78.8281C79.4753 9.15503 80 9.6797 80 10.3269C80 10.9741 79.4753 11.4988 78.8281 11.4988H1.17188C0.524666 11.4988 0 10.9741 0 10.3269Z" fill="#012463"/>
<path fill-rule="evenodd" clip-rule="evenodd" d="M4.8114 37.6384C5.43445 32.3538 9.9245 28.2534 15.3774 28.2534C20.8303 28.2534 25.3203 32.3538 25.9434 37.6384C26.0192 38.2811 25.5596 38.8636 24.9168 38.9394C24.274 39.0152 23.6916 38.5556 23.6158 37.9128C23.1301 33.7933 19.627 30.5972 15.3774 30.5972C11.1278 30.5972 7.62472 33.7933 7.13902 37.9128C7.06324 38.5556 6.48075 39.0152 5.838 38.9394C5.19524 38.8636 4.73561 38.2811 4.8114 37.6384Z" fill="#012463"/>
<path fill-rule="evenodd" clip-rule="evenodd" d="M7.48566 16.7073C7.26115 16.7073 7.0791 16.8893 7.0791 17.1138V37.3171C7.0791 37.5414 7.26089 37.7235 7.48566 37.7237C7.48573 37.7237 7.4858 37.7237 7.48587 37.7237H23.2694C23.4939 37.7237 23.676 37.5416 23.676 37.3171V17.1138C23.676 16.8893 23.4939 16.7073 23.2694 16.7073H7.48566ZM4.73535 17.1138C4.73535 15.5949 5.96674 14.3635 7.48566 14.3635H23.2694C24.7883 14.3635 26.0197 15.5949 26.0197 17.1138V37.3171C26.0197 38.836 24.7883 40.0674 23.2694 40.0674H7.48545C5.96688 40.0672 4.73535 38.8362 4.73535 37.3171V17.1138Z" fill="#012463"/>
</svg>
