<svg width="9" height="9" viewBox="0 0 9 9" fill="none" xmlns="http://www.w3.org/2000/svg">
<path d="M8.74334 6.35972L6.77455 5.51595C6.69045 5.48011 6.59697 5.47256 6.50821 5.49443C6.41944 5.51631 6.34018 5.56643 6.28236 5.63725L5.41047 6.7025C4.04211 6.05733 2.94091 4.95613 2.29574 3.58778L3.361 2.71588C3.43196 2.65817 3.48218 2.57891 3.50407 2.4901C3.52595 2.40129 3.51831 2.30777 3.48229 2.22369L2.63852 0.254904C2.59899 0.164271 2.52907 0.0902721 2.44083 0.0456674C2.35258 0.00106264 2.25154 -0.0113522 2.15512 0.0105635L0.326959 0.432446C0.233999 0.453912 0.151059 0.506254 0.0916777 0.580928C0.032296 0.655602 -2.14142e-05 0.748199 1.06459e-08 0.843606C1.06459e-08 5.35247 3.65456 9 8.15639 9C8.25183 9.00006 8.34447 8.96776 8.41918 8.90838C8.49389 8.84899 8.54625 8.76603 8.56773 8.67304L8.98961 6.84488C9.01138 6.74799 8.99871 6.64655 8.95376 6.55799C8.90881 6.46944 8.8344 6.39933 8.74334 6.35972Z" fill="#FFA648"/>
</svg>
